G04 #@! TF.GenerationSoftware,KiCad,Pcbnew,7.0.10*
G04 #@! TF.CreationDate,2024-02-03T15:41:00-08:00*
G04 #@! TF.ProjectId,rpi-simplex-clock-hat,7270692d-7369-46d7-906c-65782d636c6f,0*
G04 #@! TF.SameCoordinates,Original*
G04 #@! TF.FileFunction,Copper,L2,Bot*
G04 #@! TF.FilePolarity,Positive*
%FSLAX46Y46*%
G04 Gerber Fmt 4.6, Leading zero omitted, Abs format (unit mm)*
G04 Created by KiCad (PCBNEW 7.0.10) date 2024-02-03 15:41:00*
%MOMM*%
%LPD*%
G01*
G04 APERTURE LIST*
G04 Aperture macros list*
%AMRoundRect*
0 Rectangle with rounded corners*
0 $1 Rounding radius*
0 $2 $3 $4 $5 $6 $7 $8 $9 X,Y pos of 4 corners*
0 Add a 4 corners polygon primitive as box body*
4,1,4,$2,$3,$4,$5,$6,$7,$8,$9,$2,$3,0*
0 Add four circle primitives for the rounded corners*
1,1,$1+$1,$2,$3*
1,1,$1+$1,$4,$5*
1,1,$1+$1,$6,$7*
1,1,$1+$1,$8,$9*
0 Add four rect primitives between the rounded corners*
20,1,$1+$1,$2,$3,$4,$5,0*
20,1,$1+$1,$4,$5,$6,$7,0*
20,1,$1+$1,$6,$7,$8,$9,0*
20,1,$1+$1,$8,$9,$2,$3,0*%
G04 Aperture macros list end*
G04 #@! TA.AperFunction,ComponentPad*
%ADD10R,1.500000X3.000000*%
G04 #@! TD*
G04 #@! TA.AperFunction,ComponentPad*
%ADD11O,1.500000X3.000000*%
G04 #@! TD*
G04 #@! TA.AperFunction,ComponentPad*
%ADD12R,2.550000X2.550000*%
G04 #@! TD*
G04 #@! TA.AperFunction,ComponentPad*
%ADD13C,2.550000*%
G04 #@! TD*
G04 #@! TA.AperFunction,ComponentPad*
%ADD14C,1.600000*%
G04 #@! TD*
G04 #@! TA.AperFunction,ComponentPad*
%ADD15R,2.000000X2.000000*%
G04 #@! TD*
G04 #@! TA.AperFunction,ComponentPad*
%ADD16C,2.000000*%
G04 #@! TD*
G04 #@! TA.AperFunction,ComponentPad*
%ADD17R,1.600000X1.600000*%
G04 #@! TD*
G04 #@! TA.AperFunction,ComponentPad*
%ADD18O,1.600000X1.600000*%
G04 #@! TD*
G04 #@! TA.AperFunction,ComponentPad*
%ADD19R,1.700000X1.700000*%
G04 #@! TD*
G04 #@! TA.AperFunction,ComponentPad*
%ADD20O,1.700000X1.700000*%
G04 #@! TD*
G04 #@! TA.AperFunction,ComponentPad*
%ADD21O,2.000000X2.000000*%
G04 #@! TD*
G04 #@! TA.AperFunction,ComponentPad*
%ADD22R,3.500000X3.500000*%
G04 #@! TD*
G04 #@! TA.AperFunction,ComponentPad*
%ADD23RoundRect,0.750000X1.000000X-0.750000X1.000000X0.750000X-1.000000X0.750000X-1.000000X-0.750000X0*%
G04 #@! TD*
G04 #@! TA.AperFunction,ComponentPad*
%ADD24RoundRect,0.875000X0.875000X-0.875000X0.875000X0.875000X-0.875000X0.875000X-0.875000X-0.875000X0*%
G04 #@! TD*
G04 #@! TA.AperFunction,SMDPad,CuDef*
%ADD25R,1.000000X1.500000*%
G04 #@! TD*
G04 #@! TA.AperFunction,Conductor*
%ADD26C,0.500000*%
G04 #@! TD*
G04 #@! TA.AperFunction,Conductor*
%ADD27C,0.200000*%
G04 #@! TD*
G04 APERTURE END LIST*
D10*
X122860000Y-89205000D03*
D11*
X120320000Y-89205000D03*
X117780000Y-89205000D03*
X112700000Y-89205000D03*
X110160000Y-89205000D03*
X107620000Y-89205000D03*
X105080000Y-89205000D03*
D12*
X144450000Y-89477500D03*
D13*
X139370000Y-89477500D03*
X134290000Y-89477500D03*
X129210000Y-89477500D03*
D14*
X101925000Y-73965000D03*
X104425000Y-73965000D03*
D15*
X118587323Y-77140000D03*
D16*
X123587323Y-77140000D03*
D14*
X106985000Y-56185000D03*
X106985000Y-58685000D03*
D17*
X115240000Y-64440000D03*
D18*
X112700000Y-64440000D03*
X110160000Y-64440000D03*
X107620000Y-64440000D03*
X107620000Y-72060000D03*
X110160000Y-72060000D03*
X112700000Y-72060000D03*
X115240000Y-72060000D03*
D14*
X131750000Y-79045000D03*
D18*
X144450000Y-79045000D03*
D19*
X103175000Y-56185000D03*
D20*
X103175000Y-58725000D03*
D14*
X156515000Y-60630000D03*
D18*
X156515000Y-53010000D03*
D15*
X157355000Y-75870000D03*
D21*
X157355000Y-80950000D03*
X162435000Y-80950000D03*
X162435000Y-75870000D03*
D14*
X115240000Y-60630000D03*
D18*
X115240000Y-53010000D03*
D14*
X162230000Y-60630000D03*
X159730000Y-60630000D03*
D17*
X160950000Y-64440000D03*
D18*
X158410000Y-64440000D03*
X155870000Y-64440000D03*
X153330000Y-64440000D03*
X153330000Y-72060000D03*
X155870000Y-72060000D03*
X158410000Y-72060000D03*
X160950000Y-72060000D03*
D14*
X152705000Y-60630000D03*
D18*
X152705000Y-53010000D03*
D14*
X110160000Y-60630000D03*
D18*
X110160000Y-53010000D03*
D22*
X153340000Y-85745000D03*
D23*
X153340000Y-91745000D03*
D24*
X158040000Y-88745000D03*
D17*
X106390000Y-78410000D03*
D14*
X108890000Y-78410000D03*
D19*
X108370000Y-48720000D03*
D20*
X108370000Y-46180000D03*
X110910000Y-48720000D03*
X110910000Y-46180000D03*
X113450000Y-48720000D03*
X113450000Y-46180000D03*
X115990000Y-48720000D03*
X115990000Y-46180000D03*
X118530000Y-48720000D03*
X118530000Y-46180000D03*
X121070000Y-48720000D03*
X121070000Y-46180000D03*
X123610000Y-48720000D03*
X123610000Y-46180000D03*
X126150000Y-48720000D03*
X126150000Y-46180000D03*
X128690000Y-48720000D03*
X128690000Y-46180000D03*
X131230000Y-48720000D03*
X131230000Y-46180000D03*
X133770000Y-48720000D03*
X133770000Y-46180000D03*
X136310000Y-48720000D03*
X136310000Y-46180000D03*
X138850000Y-48720000D03*
X138850000Y-46180000D03*
X141390000Y-48720000D03*
X141390000Y-46180000D03*
X143930000Y-48720000D03*
X143930000Y-46180000D03*
X146470000Y-48720000D03*
X146470000Y-46180000D03*
X149010000Y-48720000D03*
X149010000Y-46180000D03*
X151550000Y-48720000D03*
X151550000Y-46180000D03*
X154090000Y-48720000D03*
X154090000Y-46180000D03*
X156630000Y-48720000D03*
X156630000Y-46180000D03*
D25*
X158420000Y-68250000D03*
X157120000Y-68250000D03*
D26*
X154680000Y-63090000D02*
X153330000Y-64440000D01*
X115799189Y-54360000D02*
X116590000Y-53569189D01*
X158185000Y-48720000D02*
X158400000Y-48935000D01*
X131230000Y-46180000D02*
X131230000Y-44365000D01*
X131230000Y-44365000D02*
X131115000Y-44250000D01*
X116590000Y-53569189D02*
X116590000Y-51025000D01*
X158420000Y-50510000D02*
X158420000Y-60630000D01*
X149010000Y-44365000D02*
X148895000Y-44250000D01*
X158400000Y-48935000D02*
X158400000Y-50490000D01*
X108890000Y-78410000D02*
X104445000Y-73965000D01*
X112700000Y-44250000D02*
X123495000Y-44250000D01*
X107620000Y-89205000D02*
X107620000Y-85395000D01*
X131115000Y-44250000D02*
X143815000Y-44250000D01*
X118530000Y-49085000D02*
X118530000Y-48720000D01*
X113450000Y-44315000D02*
X113385000Y-44250000D01*
X105545000Y-60125000D02*
X106985000Y-58685000D01*
X104425000Y-73965000D02*
X104425000Y-61245000D01*
X113385000Y-44250000D02*
X103133709Y-44250000D01*
X100300000Y-47083709D02*
X100300000Y-57829899D01*
X123610000Y-44365000D02*
X123495000Y-44250000D01*
X100300000Y-57829899D02*
X102595101Y-60125000D01*
X156630000Y-48720000D02*
X158185000Y-48720000D01*
X107620000Y-85395000D02*
X108890000Y-84125000D01*
X158420000Y-45990101D02*
X158420000Y-50470000D01*
X102595101Y-60125000D02*
X105545000Y-60125000D01*
X113450000Y-46180000D02*
X113450000Y-44315000D01*
X111310000Y-54360000D02*
X115799189Y-54360000D01*
X156595000Y-63090000D02*
X154680000Y-63090000D01*
X158420000Y-50470000D02*
X158400000Y-50490000D01*
X158400000Y-50490000D02*
X158420000Y-50510000D01*
X116590000Y-51025000D02*
X118530000Y-49085000D01*
X104425000Y-61245000D02*
X106985000Y-58685000D01*
X156679899Y-44250000D02*
X158420000Y-45990101D01*
X149010000Y-46180000D02*
X149010000Y-44365000D01*
X143930000Y-46180000D02*
X143930000Y-44365000D01*
X104445000Y-73965000D02*
X104425000Y-73965000D01*
X123610000Y-46180000D02*
X123610000Y-44365000D01*
X103133709Y-44250000D02*
X100300000Y-47083709D01*
X143815000Y-44250000D02*
X148895000Y-44250000D01*
X148895000Y-44250000D02*
X156679899Y-44250000D01*
X106985000Y-58685000D02*
X111310000Y-54360000D01*
X158420000Y-61265000D02*
X156595000Y-63090000D01*
X143930000Y-44365000D02*
X143815000Y-44250000D01*
X123495000Y-44250000D02*
X131115000Y-44250000D01*
X159730000Y-60630000D02*
X158420000Y-60630000D01*
X108890000Y-84125000D02*
X108890000Y-78410000D01*
X158420000Y-60630000D02*
X158420000Y-61265000D01*
D27*
X117240000Y-51645000D02*
X117240000Y-53838427D01*
X107620000Y-60630000D02*
X107620000Y-64440000D01*
X112700000Y-55550000D02*
X107620000Y-60630000D01*
X118915000Y-49970000D02*
X117240000Y-51645000D01*
X119820000Y-49970000D02*
X118915000Y-49970000D01*
X117240000Y-53838427D02*
X115528427Y-55550000D01*
X115528427Y-55550000D02*
X112700000Y-55550000D01*
X121070000Y-48720000D02*
X119820000Y-49970000D01*
X114189113Y-57455000D02*
X117640000Y-54004113D01*
X112700000Y-64440000D02*
X112700000Y-58725000D01*
X121960000Y-50370000D02*
X123610000Y-48720000D01*
X113970000Y-57455000D02*
X114189113Y-57455000D01*
X117640000Y-54004113D02*
X117640000Y-51880000D01*
X112700000Y-58725000D02*
X113970000Y-57455000D01*
X117640000Y-51880000D02*
X119150000Y-50370000D01*
X119150000Y-50370000D02*
X121960000Y-50370000D01*
X153140000Y-50270000D02*
X143287968Y-50270000D01*
X152705000Y-60630000D02*
X153975000Y-59360000D01*
X143287968Y-50270000D02*
X142145000Y-49127032D01*
X153975000Y-59360000D02*
X153975000Y-51105000D01*
X142145000Y-49127032D02*
X142145000Y-48720000D01*
X153975000Y-51105000D02*
X153140000Y-50270000D01*
X142145000Y-48720000D02*
X141390000Y-48720000D01*
X155315000Y-59430000D02*
X155315000Y-51810000D01*
X153375000Y-49870000D02*
X143453654Y-49870000D01*
X142545000Y-47335000D02*
X141390000Y-46180000D01*
X155315000Y-51810000D02*
X153375000Y-49870000D01*
X143453654Y-49870000D02*
X142545000Y-48961346D01*
X142545000Y-48961346D02*
X142545000Y-47335000D01*
X156515000Y-60630000D02*
X155315000Y-59430000D01*
D26*
X106390000Y-81545000D02*
X106390000Y-78410000D01*
X103175000Y-91110000D02*
X103175000Y-84760000D01*
X103810000Y-91745000D02*
X103175000Y-91110000D01*
X103175000Y-84760000D02*
X106390000Y-81545000D01*
X115240000Y-53010000D02*
X110160000Y-53010000D01*
X103175000Y-58725000D02*
X104445000Y-58725000D01*
X110160000Y-90475000D02*
X108890000Y-91745000D01*
X110160000Y-89205000D02*
X110160000Y-90475000D01*
X108890000Y-53010000D02*
X110160000Y-53010000D01*
X104445000Y-58725000D02*
X106985000Y-56185000D01*
X106985000Y-56185000D02*
X106985000Y-54915000D01*
X106985000Y-54915000D02*
X108890000Y-53010000D01*
X108890000Y-91745000D02*
X103810000Y-91745000D01*
X157120000Y-66375000D02*
X157120000Y-68250000D01*
X157150000Y-66345000D02*
X157120000Y-66375000D01*
X159690000Y-66345000D02*
X157150000Y-66345000D01*
X162300000Y-60700000D02*
X162230000Y-60630000D01*
X160950000Y-67605000D02*
X159690000Y-66345000D01*
X160950000Y-72060000D02*
X160950000Y-67625000D01*
X160950000Y-72060000D02*
X160950000Y-67605000D01*
X162300000Y-66275000D02*
X162300000Y-60700000D01*
X160950000Y-67625000D02*
X162300000Y-66275000D01*
X108370000Y-46180000D02*
X110910000Y-46180000D01*
X103175000Y-56185000D02*
X103175000Y-54280000D01*
X103175000Y-54280000D02*
X106350000Y-51105000D01*
X106350000Y-48200000D02*
X108370000Y-46180000D01*
X106350000Y-51105000D02*
X106350000Y-48200000D01*
X153340000Y-85745000D02*
X151085000Y-85745000D01*
X147352500Y-89477500D02*
X144450000Y-89477500D01*
X151085000Y-85745000D02*
X147352500Y-89477500D01*
X141637500Y-91745000D02*
X153340000Y-91745000D01*
X139370000Y-89477500D02*
X141637500Y-91745000D01*
X155040000Y-91745000D02*
X158040000Y-88745000D01*
X153340000Y-91745000D02*
X155040000Y-91745000D01*
X158040000Y-88745000D02*
X158040000Y-85345000D01*
X158040000Y-85345000D02*
X162435000Y-80950000D01*
X162435000Y-75870000D02*
X160885000Y-74320000D01*
X121407323Y-74320000D02*
X118587323Y-77140000D01*
X120320000Y-89205000D02*
X120320000Y-78872677D01*
X160885000Y-74320000D02*
X121407323Y-74320000D01*
X120320000Y-78872677D02*
X118587323Y-77140000D01*
X134925000Y-80950000D02*
X133020000Y-79045000D01*
X115240000Y-72060000D02*
X115240000Y-70790000D01*
X110795000Y-70155000D02*
X110160000Y-70790000D01*
X157355000Y-80950000D02*
X134925000Y-80950000D01*
X114605000Y-70155000D02*
X110795000Y-70155000D01*
X133020000Y-79045000D02*
X131750000Y-79045000D01*
X110160000Y-70790000D02*
X110160000Y-72060000D01*
X115240000Y-70790000D02*
X114605000Y-70155000D01*
D27*
X158420000Y-72050000D02*
X158410000Y-72060000D01*
X158420000Y-68250000D02*
X158420000Y-72050000D01*
X110160000Y-60630000D02*
X110160000Y-64440000D01*
X115240000Y-60630000D02*
X115240000Y-64440000D01*
D26*
X124857323Y-75870000D02*
X123587323Y-77140000D01*
X157355000Y-75870000D02*
X124857323Y-75870000D01*
X122860000Y-89205000D02*
X122860000Y-77867323D01*
X122860000Y-77867323D02*
X123587323Y-77140000D01*
M02*
