G04 #@! TF.GenerationSoftware,KiCad,Pcbnew,8.0.1*
G04 #@! TF.CreationDate,2024-03-23T12:26:16-07:00*
G04 #@! TF.ProjectId,rpi-simplex-clock-hat,7270692d-7369-46d7-906c-65782d636c6f,1*
G04 #@! TF.SameCoordinates,Original*
G04 #@! TF.FileFunction,Copper,L2,Bot*
G04 #@! TF.FilePolarity,Positive*
%FSLAX46Y46*%
G04 Gerber Fmt 4.6, Leading zero omitted, Abs format (unit mm)*
G04 Created by KiCad (PCBNEW 8.0.1) date 2024-03-23 12:26:16*
%MOMM*%
%LPD*%
G01*
G04 APERTURE LIST*
G04 Aperture macros list*
%AMRoundRect*
0 Rectangle with rounded corners*
0 $1 Rounding radius*
0 $2 $3 $4 $5 $6 $7 $8 $9 X,Y pos of 4 corners*
0 Add a 4 corners polygon primitive as box body*
4,1,4,$2,$3,$4,$5,$6,$7,$8,$9,$2,$3,0*
0 Add four circle primitives for the rounded corners*
1,1,$1+$1,$2,$3*
1,1,$1+$1,$4,$5*
1,1,$1+$1,$6,$7*
1,1,$1+$1,$8,$9*
0 Add four rect primitives between the rounded corners*
20,1,$1+$1,$2,$3,$4,$5,0*
20,1,$1+$1,$4,$5,$6,$7,0*
20,1,$1+$1,$6,$7,$8,$9,0*
20,1,$1+$1,$8,$9,$2,$3,0*%
G04 Aperture macros list end*
G04 #@! TA.AperFunction,ComponentPad*
%ADD10R,1.500000X3.000000*%
G04 #@! TD*
G04 #@! TA.AperFunction,ComponentPad*
%ADD11O,1.500000X3.000000*%
G04 #@! TD*
G04 #@! TA.AperFunction,ComponentPad*
%ADD12R,2.550000X2.550000*%
G04 #@! TD*
G04 #@! TA.AperFunction,ComponentPad*
%ADD13C,2.550000*%
G04 #@! TD*
G04 #@! TA.AperFunction,ComponentPad*
%ADD14C,1.600000*%
G04 #@! TD*
G04 #@! TA.AperFunction,ComponentPad*
%ADD15R,2.000000X2.000000*%
G04 #@! TD*
G04 #@! TA.AperFunction,ComponentPad*
%ADD16C,2.000000*%
G04 #@! TD*
G04 #@! TA.AperFunction,ComponentPad*
%ADD17R,1.600000X1.600000*%
G04 #@! TD*
G04 #@! TA.AperFunction,ComponentPad*
%ADD18O,1.600000X1.600000*%
G04 #@! TD*
G04 #@! TA.AperFunction,ComponentPad*
%ADD19R,1.700000X1.700000*%
G04 #@! TD*
G04 #@! TA.AperFunction,ComponentPad*
%ADD20O,1.700000X1.700000*%
G04 #@! TD*
G04 #@! TA.AperFunction,ComponentPad*
%ADD21R,3.500000X3.500000*%
G04 #@! TD*
G04 #@! TA.AperFunction,ComponentPad*
%ADD22RoundRect,0.750000X0.750000X1.000000X-0.750000X1.000000X-0.750000X-1.000000X0.750000X-1.000000X0*%
G04 #@! TD*
G04 #@! TA.AperFunction,ComponentPad*
%ADD23RoundRect,0.875000X0.875000X0.875000X-0.875000X0.875000X-0.875000X-0.875000X0.875000X-0.875000X0*%
G04 #@! TD*
G04 #@! TA.AperFunction,ComponentPad*
%ADD24O,2.000000X2.000000*%
G04 #@! TD*
G04 #@! TA.AperFunction,ComponentPad*
%ADD25RoundRect,0.750000X1.000000X-0.750000X1.000000X0.750000X-1.000000X0.750000X-1.000000X-0.750000X0*%
G04 #@! TD*
G04 #@! TA.AperFunction,ComponentPad*
%ADD26RoundRect,0.875000X0.875000X-0.875000X0.875000X0.875000X-0.875000X0.875000X-0.875000X-0.875000X0*%
G04 #@! TD*
G04 #@! TA.AperFunction,SMDPad,CuDef*
%ADD27R,1.000000X1.500000*%
G04 #@! TD*
G04 #@! TA.AperFunction,Conductor*
%ADD28C,0.500000*%
G04 #@! TD*
G04 #@! TA.AperFunction,Conductor*
%ADD29C,0.200000*%
G04 #@! TD*
G04 APERTURE END LIST*
D10*
X122860000Y-89205000D03*
D11*
X120320000Y-89205000D03*
X117780000Y-89205000D03*
X112700000Y-89205000D03*
X110160000Y-89205000D03*
X107620000Y-89205000D03*
X105080000Y-89205000D03*
D12*
X144450000Y-89477500D03*
D13*
X139370000Y-89477500D03*
X134290000Y-89477500D03*
X129210000Y-89477500D03*
D14*
X101290000Y-75235000D03*
X103790000Y-75235000D03*
D15*
X119222323Y-77140000D03*
D16*
X124222323Y-77140000D03*
D14*
X106985000Y-56185000D03*
X106985000Y-58685000D03*
D17*
X115865000Y-64440000D03*
D18*
X113325000Y-64440000D03*
X110785000Y-64440000D03*
X108245000Y-64440000D03*
X108245000Y-72060000D03*
X110785000Y-72060000D03*
X113325000Y-72060000D03*
X115865000Y-72060000D03*
D14*
X108255000Y-94920000D03*
D18*
X120955000Y-94920000D03*
D19*
X103175000Y-56185000D03*
D20*
X103175000Y-58725000D03*
D14*
X156515000Y-54915000D03*
D18*
X156515000Y-52375000D03*
D14*
X115875000Y-60630000D03*
D18*
X115875000Y-53010000D03*
D14*
X163500000Y-63150000D03*
X163500000Y-60650000D03*
D17*
X160325000Y-58090000D03*
D18*
X157785000Y-58090000D03*
X155245000Y-58090000D03*
X152705000Y-58090000D03*
X152705000Y-65710000D03*
X155245000Y-65710000D03*
X157785000Y-65710000D03*
X160325000Y-65710000D03*
D21*
X142085000Y-78791000D03*
D22*
X148085000Y-78791000D03*
D23*
X145085000Y-74091000D03*
D14*
X152705000Y-54915000D03*
D18*
X152705000Y-52375000D03*
D15*
X131750000Y-74600000D03*
D24*
X131750000Y-79680000D03*
X136830000Y-79680000D03*
X136830000Y-74600000D03*
D14*
X110795000Y-60630000D03*
D18*
X110795000Y-53010000D03*
D21*
X153340000Y-85745000D03*
D25*
X153340000Y-91745000D03*
D26*
X158040000Y-88745000D03*
D17*
X106390000Y-79000000D03*
D14*
X108890000Y-79000000D03*
D19*
X108370000Y-48720000D03*
D20*
X108370000Y-46180000D03*
X110910000Y-48720000D03*
X110910000Y-46180000D03*
X113450000Y-48720000D03*
X113450000Y-46180000D03*
X115990000Y-48720000D03*
X115990000Y-46180000D03*
X118530000Y-48720000D03*
X118530000Y-46180000D03*
X121070000Y-48720000D03*
X121070000Y-46180000D03*
X123610000Y-48720000D03*
X123610000Y-46180000D03*
X126150000Y-48720000D03*
X126150000Y-46180000D03*
X128690000Y-48720000D03*
X128690000Y-46180000D03*
X131230000Y-48720000D03*
X131230000Y-46180000D03*
X133770000Y-48720000D03*
X133770000Y-46180000D03*
X136310000Y-48720000D03*
X136310000Y-46180000D03*
X138850000Y-48720000D03*
X138850000Y-46180000D03*
X141390000Y-48720000D03*
X141390000Y-46180000D03*
X143930000Y-48720000D03*
X143930000Y-46180000D03*
X146470000Y-48720000D03*
X146470000Y-46180000D03*
X149010000Y-48720000D03*
X149010000Y-46180000D03*
X151550000Y-48720000D03*
X151550000Y-46180000D03*
X154090000Y-48720000D03*
X154090000Y-46180000D03*
X156630000Y-48720000D03*
X156630000Y-46180000D03*
D27*
X157770000Y-62535000D03*
X159070000Y-62535000D03*
D28*
X109605000Y-51025000D02*
X108810000Y-51820000D01*
X113450000Y-46180000D02*
X113450000Y-44315000D01*
X100300000Y-57829899D02*
X102595101Y-60125000D01*
X108810000Y-51820000D02*
X108810000Y-56860000D01*
X131230000Y-46180000D02*
X131230000Y-44365000D01*
X131230000Y-44365000D02*
X131115000Y-44250000D01*
X149010000Y-44365000D02*
X148895000Y-44250000D01*
X157785000Y-48330000D02*
X157395000Y-48720000D01*
X108890000Y-76505000D02*
X107620000Y-75235000D01*
X112700000Y-44250000D02*
X123495000Y-44250000D01*
X107620000Y-89205000D02*
X107620000Y-85395000D01*
X131115000Y-44250000D02*
X143815000Y-44250000D01*
X108245000Y-59945000D02*
X106985000Y-58685000D01*
X103133709Y-44250000D02*
X100300000Y-47083709D01*
X105545000Y-60125000D02*
X106985000Y-58685000D01*
X123610000Y-44365000D02*
X123495000Y-44250000D01*
X102595101Y-60125000D02*
X105545000Y-60125000D01*
X158030000Y-45600101D02*
X158030000Y-46759899D01*
X113325000Y-65720000D02*
X112700000Y-66345000D01*
X107620000Y-85395000D02*
X108890000Y-84125000D01*
X106895000Y-67705000D02*
X108255000Y-66345000D01*
X118530000Y-49085000D02*
X116590000Y-51025000D01*
X108245000Y-66335000D02*
X108255000Y-66345000D01*
X157395000Y-48720000D02*
X156630000Y-48720000D01*
X108890000Y-78410000D02*
X108890000Y-76505000D01*
X106895000Y-75145000D02*
X106895000Y-67705000D01*
X113385000Y-44250000D02*
X103133709Y-44250000D01*
X149010000Y-46180000D02*
X149010000Y-44365000D01*
X108245000Y-64440000D02*
X108245000Y-66335000D01*
X143930000Y-46180000D02*
X143930000Y-44365000D01*
X112700000Y-66345000D02*
X108255000Y-66345000D01*
X123610000Y-46180000D02*
X123610000Y-44365000D01*
X106985000Y-75235000D02*
X106895000Y-75145000D01*
X118530000Y-48720000D02*
X118530000Y-49085000D01*
X156679899Y-44250000D02*
X158030000Y-45600101D01*
X143815000Y-44250000D02*
X148895000Y-44250000D01*
X116590000Y-51025000D02*
X109605000Y-51025000D01*
X157785000Y-47004899D02*
X157785000Y-48330000D01*
X113450000Y-44315000D02*
X113385000Y-44250000D01*
X100300000Y-47083709D02*
X100300000Y-57829899D01*
X143930000Y-44365000D02*
X143815000Y-44250000D01*
X106985000Y-75235000D02*
X103790000Y-75235000D01*
X108810000Y-56860000D02*
X106985000Y-58685000D01*
X123495000Y-44250000D02*
X131115000Y-44250000D01*
X108245000Y-64440000D02*
X108245000Y-59945000D01*
X158030000Y-46759899D02*
X157785000Y-47004899D01*
X113325000Y-64440000D02*
X113325000Y-65720000D01*
X108890000Y-84125000D02*
X108890000Y-78410000D01*
X148895000Y-44250000D02*
X156679899Y-44250000D01*
X107620000Y-75235000D02*
X106985000Y-75235000D01*
D29*
X121070000Y-48720000D02*
X119820000Y-49970000D01*
X119820000Y-49970000D02*
X118915000Y-49970000D01*
X110795000Y-53010000D02*
X110795000Y-52375000D01*
X110795000Y-52375000D02*
X111260000Y-51910000D01*
X116975000Y-51910000D02*
X111260000Y-51910000D01*
X118915000Y-49970000D02*
X116975000Y-51910000D01*
X115875000Y-53010000D02*
X116510000Y-53010000D01*
X121960000Y-50370000D02*
X119150000Y-50370000D01*
X116510000Y-53010000D02*
X119150000Y-50370000D01*
X123610000Y-48720000D02*
X121960000Y-50370000D01*
X152705000Y-54915000D02*
X151435000Y-56185000D01*
X150165000Y-50470000D02*
X151435000Y-51740000D01*
X141390000Y-48720000D02*
X142145000Y-48720000D01*
X151435000Y-56185000D02*
X151435000Y-58725000D01*
X152705000Y-59995000D02*
X152705000Y-65710000D01*
X151435000Y-51740000D02*
X151435000Y-53645000D01*
X142145000Y-48720000D02*
X142145000Y-49127032D01*
X151435000Y-58725000D02*
X152705000Y-59995000D01*
X143487968Y-50470000D02*
X150165000Y-50470000D01*
X151435000Y-53645000D02*
X152705000Y-54915000D01*
X142145000Y-49127032D02*
X143487968Y-50470000D01*
X155245000Y-61900000D02*
X155245000Y-65710000D01*
X154610000Y-51105000D02*
X154610000Y-54280000D01*
X153375000Y-49870000D02*
X154610000Y-51105000D01*
X143453654Y-49870000D02*
X153375000Y-49870000D01*
X156515000Y-54915000D02*
X156515000Y-60630000D01*
X141390000Y-46180000D02*
X142545000Y-47335000D01*
X142545000Y-48961346D02*
X143453654Y-49870000D01*
X154610000Y-54280000D02*
X155245000Y-54915000D01*
X156515000Y-60630000D02*
X155245000Y-61900000D01*
X142545000Y-47335000D02*
X142545000Y-48961346D01*
X155245000Y-54915000D02*
X156515000Y-54915000D01*
D28*
X106390000Y-79000000D02*
X102495000Y-79000000D01*
X101270000Y-77775000D02*
X101290000Y-77755000D01*
X110160000Y-89205000D02*
X110160000Y-90475000D01*
X108890000Y-91745000D02*
X103810000Y-91745000D01*
X101290000Y-77755000D02*
X101290000Y-75235000D01*
X103175000Y-91110000D02*
X103175000Y-84760000D01*
X106390000Y-81545000D02*
X106390000Y-79000000D01*
X103810000Y-91745000D02*
X103175000Y-91110000D01*
X103175000Y-58725000D02*
X104445000Y-58725000D01*
X103175000Y-84760000D02*
X106390000Y-81545000D01*
X102495000Y-79000000D02*
X101270000Y-77775000D01*
X110160000Y-90475000D02*
X108890000Y-91745000D01*
X104445000Y-58725000D02*
X106985000Y-56185000D01*
X160325000Y-63170000D02*
X160325000Y-65710000D01*
X158975000Y-56740000D02*
X157865000Y-55630000D01*
X159690000Y-62535000D02*
X160325000Y-63170000D01*
X160325000Y-65710000D02*
X160940000Y-65710000D01*
X157865000Y-53725000D02*
X156515000Y-52375000D01*
X161675000Y-56740000D02*
X158975000Y-56740000D01*
X163500000Y-63150000D02*
X162150000Y-61800000D01*
X162150000Y-61800000D02*
X162150000Y-57215000D01*
X160940000Y-65710000D02*
X163500000Y-63150000D01*
X162150000Y-57215000D02*
X161675000Y-56740000D01*
X157865000Y-55630000D02*
X157865000Y-53725000D01*
X159070000Y-62535000D02*
X159690000Y-62535000D01*
X108370000Y-46180000D02*
X110910000Y-46180000D01*
X103175000Y-56185000D02*
X103175000Y-54280000D01*
X103175000Y-54280000D02*
X106350000Y-51105000D01*
X106350000Y-48200000D02*
X108370000Y-46180000D01*
X106350000Y-51105000D02*
X106350000Y-48200000D01*
X142085000Y-81760000D02*
X142085000Y-78791000D01*
X144450000Y-84125000D02*
X142085000Y-81760000D01*
X153340000Y-85745000D02*
X151085000Y-85745000D01*
X147352500Y-89477500D02*
X144450000Y-89477500D01*
X151085000Y-85745000D02*
X147352500Y-89477500D01*
X144450000Y-89477500D02*
X144450000Y-84125000D01*
X119222323Y-81757323D02*
X119222323Y-77140000D01*
X120320000Y-89205000D02*
X120320000Y-82855000D01*
X120320000Y-82855000D02*
X119222323Y-81757323D01*
X120320000Y-74600000D02*
X131750000Y-74600000D01*
X119222323Y-77140000D02*
X119222323Y-75697677D01*
X119222323Y-75697677D02*
X120320000Y-74600000D01*
X112065000Y-94920000D02*
X115875000Y-91110000D01*
X115875000Y-91110000D02*
X115865000Y-91100000D01*
X115865000Y-91100000D02*
X115865000Y-72060000D01*
X115875000Y-70790000D02*
X115865000Y-70800000D01*
X110785000Y-72060000D02*
X110785000Y-70800000D01*
X108255000Y-94920000D02*
X112065000Y-94920000D01*
X115865000Y-70800000D02*
X115865000Y-72060000D01*
X110785000Y-70800000D02*
X111430000Y-70155000D01*
X111430000Y-70155000D02*
X115240000Y-70155000D01*
X115240000Y-70155000D02*
X115875000Y-70790000D01*
D29*
X157785000Y-65710000D02*
X157785000Y-62550000D01*
X157785000Y-62550000D02*
X157770000Y-62535000D01*
X110795000Y-64430000D02*
X110785000Y-64440000D01*
X110795000Y-60630000D02*
X110795000Y-64430000D01*
X115875000Y-60630000D02*
X115875000Y-64430000D01*
X115875000Y-64430000D02*
X115865000Y-64440000D01*
D28*
X122860000Y-89205000D02*
X122860000Y-82855000D01*
X124222323Y-77140000D02*
X124222323Y-81492677D01*
X124222323Y-81492677D02*
X124130000Y-81585000D01*
X136830000Y-79680000D02*
X134290000Y-77140000D01*
X122860000Y-82855000D02*
X124130000Y-81585000D01*
X134290000Y-77140000D02*
X124222323Y-77140000D01*
X141637500Y-91745000D02*
X153340000Y-91745000D01*
X139370000Y-89477500D02*
X141637500Y-91745000D01*
X147116000Y-74091000D02*
X145085000Y-74091000D01*
X155040000Y-91745000D02*
X158040000Y-88745000D01*
X153340000Y-91745000D02*
X155040000Y-91745000D01*
X153086000Y-78791000D02*
X148085000Y-78791000D01*
X139370000Y-87300000D02*
X131750000Y-79680000D01*
X148085000Y-78791000D02*
X148085000Y-75060000D01*
X158040000Y-83745000D02*
X153086000Y-78791000D01*
X139370000Y-89477500D02*
X139370000Y-87300000D01*
X158040000Y-88745000D02*
X158040000Y-83745000D01*
X148085000Y-75060000D02*
X147116000Y-74091000D01*
M02*
