M48
; DRILL file {KiCad 7.0.10} date Sat Feb  3 15:41:05 2024
; FORMAT={-:-/ absolute / inch / decimal}
; #@! TF.CreationDate,2024-02-03T15:41:05-08:00
; #@! TF.GenerationSoftware,Kicad,Pcbnew,7.0.10
; #@! TF.FileFunction,Plated,1,2,PTH
FMAT,2
INCH
; #@! TA.AperFunction,Plated,PTH,ComponentDrill
T1C0.0315
; #@! TA.AperFunction,Plated,PTH,ComponentDrill
T2C0.0394
; #@! TA.AperFunction,Plated,PTH,ComponentDrill
T3C0.0669
%
G90
G05
T1
X4.0128Y-2.912
X4.1112Y-2.912
X4.1886Y-3.087
X4.212Y-2.212
X4.212Y-2.3104
X4.237Y-2.537
X4.237Y-2.837
X4.287Y-3.087
X4.337Y-2.087
X4.337Y-2.387
X4.337Y-2.537
X4.337Y-2.837
X4.437Y-2.537
X4.437Y-2.837
X4.537Y-2.087
X4.537Y-2.387
X4.537Y-2.537
X4.537Y-2.837
X5.187Y-3.112
X5.687Y-3.112
X6.012Y-2.087
X6.012Y-2.387
X6.0366Y-2.537
X6.0366Y-2.837
X6.1366Y-2.537
X6.1366Y-2.837
X6.162Y-2.087
X6.162Y-2.387
X6.2366Y-2.537
X6.2366Y-2.837
X6.2886Y-2.387
X6.3366Y-2.537
X6.3366Y-2.837
X6.387Y-2.387
T2
X4.062Y-2.212
X4.062Y-2.312
X4.137Y-3.512
X4.237Y-3.512
X4.2665Y-1.8181
X4.2665Y-1.9181
X4.337Y-3.512
X4.3665Y-1.8181
X4.3665Y-1.9181
X4.437Y-3.512
X4.4665Y-1.8181
X4.4665Y-1.9181
X4.5665Y-1.8181
X4.5665Y-1.9181
X4.637Y-3.512
X4.6665Y-1.8181
X4.6665Y-1.9181
X4.6688Y-3.037
X4.737Y-3.512
X4.7665Y-1.8181
X4.7665Y-1.9181
X4.837Y-3.512
X4.8656Y-3.037
X4.8665Y-1.8181
X4.8665Y-1.9181
X4.9665Y-1.8181
X4.9665Y-1.9181
X5.0665Y-1.8181
X5.0665Y-1.9181
X5.1665Y-1.8181
X5.1665Y-1.9181
X5.2665Y-1.8181
X5.2665Y-1.9181
X5.3665Y-1.8181
X5.3665Y-1.9181
X5.4665Y-1.8181
X5.4665Y-1.9181
X5.5665Y-1.8181
X5.5665Y-1.9181
X5.6665Y-1.8181
X5.6665Y-1.9181
X5.7665Y-1.8181
X5.7665Y-1.9181
X5.8665Y-1.8181
X5.8665Y-1.9181
X5.9665Y-1.8181
X5.9665Y-1.9181
X6.0665Y-1.8181
X6.0665Y-1.9181
X6.1665Y-1.8181
X6.1665Y-1.9181
X6.1951Y-2.987
X6.1951Y-3.187
X6.3951Y-2.987
X6.3951Y-3.187
T3
X5.087Y-3.5227
X5.287Y-3.5227
X5.487Y-3.5227
X5.687Y-3.5227
T2
G00X5.9976Y-3.3758
M15
G01X6.0764Y-3.3758
M16
G05
G00X5.9976Y-3.612
M15
G01X6.0764Y-3.612
M16
G05
G00X6.222Y-3.5333
M15
G01X6.222Y-3.4545
M16
G05
M30
