M48
; DRILL file {KiCad 8.0.1} date 2024-03-23T12:26:18-0700
; FORMAT={-:-/ absolute / inch / decimal}
; #@! TF.CreationDate,2024-03-23T12:26:18-07:00
; #@! TF.GenerationSoftware,Kicad,Pcbnew,8.0.1
; #@! TF.FileFunction,Plated,1,2,PTH
FMAT,2
INCH
; #@! TA.AperFunction,Plated,PTH,ComponentDrill
T1C0.0315
; #@! TA.AperFunction,Plated,PTH,ComponentDrill
T2C0.0394
; #@! TA.AperFunction,Plated,PTH,ComponentDrill
T3C0.0669
%
G90
G05
T1
X3.9878Y-2.962
X4.0862Y-2.962
X4.1886Y-3.1102
X4.212Y-2.212
X4.212Y-2.3104
X4.2616Y-2.537
X4.2616Y-2.837
X4.262Y-3.737
X4.287Y-3.1102
X4.3616Y-2.537
X4.3616Y-2.837
X4.362Y-2.087
X4.362Y-2.387
X4.4616Y-2.537
X4.4616Y-2.837
X4.5616Y-2.537
X4.5616Y-2.837
X4.562Y-2.087
X4.562Y-2.387
X4.762Y-3.737
X6.012Y-2.062
X6.012Y-2.162
X6.012Y-2.287
X6.012Y-2.587
X6.112Y-2.287
X6.112Y-2.587
X6.162Y-2.062
X6.162Y-2.162
X6.212Y-2.287
X6.212Y-2.587
X6.312Y-2.287
X6.312Y-2.587
X6.437Y-2.3878
X6.437Y-2.4862
T2
X4.062Y-2.212
X4.062Y-2.312
X4.137Y-3.512
X4.237Y-3.512
X4.2665Y-1.8181
X4.2665Y-1.9181
X4.337Y-3.512
X4.3665Y-1.8181
X4.3665Y-1.9181
X4.437Y-3.512
X4.4665Y-1.8181
X4.4665Y-1.9181
X4.5665Y-1.8181
X4.5665Y-1.9181
X4.637Y-3.512
X4.6665Y-1.8181
X4.6665Y-1.9181
X4.6938Y-3.037
X4.737Y-3.512
X4.7665Y-1.8181
X4.7665Y-1.9181
X4.837Y-3.512
X4.8665Y-1.8181
X4.8665Y-1.9181
X4.8906Y-3.037
X4.9665Y-1.8181
X4.9665Y-1.9181
X5.0665Y-1.8181
X5.0665Y-1.9181
X5.1665Y-1.8181
X5.1665Y-1.9181
X5.187Y-2.937
X5.187Y-3.137
X5.2665Y-1.8181
X5.2665Y-1.9181
X5.3665Y-1.8181
X5.3665Y-1.9181
X5.387Y-2.937
X5.387Y-3.137
X5.4665Y-1.8181
X5.4665Y-1.9181
X5.5665Y-1.8181
X5.5665Y-1.9181
X5.6665Y-1.8181
X5.6665Y-1.9181
X5.7665Y-1.8181
X5.7665Y-1.9181
X5.8665Y-1.8181
X5.8665Y-1.9181
X5.9665Y-1.8181
X5.9665Y-1.9181
X6.0665Y-1.8181
X6.0665Y-1.9181
X6.1665Y-1.8181
X6.1665Y-1.9181
T3
X5.087Y-3.5227
X5.287Y-3.5227
X5.487Y-3.5227
X5.687Y-3.5227
T2
G00X5.5939Y-3.1414
M15
G01X5.5939Y-3.0626
M16
G05
G00X5.7514Y-2.917
M15
G01X5.6726Y-2.917
M16
G05
G00X5.8301Y-3.1414
M15
G01X5.8301Y-3.0626
M16
G05
G00X5.9976Y-3.3758
M15
G01X6.0764Y-3.3758
M16
G05
G00X5.9976Y-3.612
M15
G01X6.0764Y-3.612
M16
G05
G00X6.222Y-3.5333
M15
G01X6.222Y-3.4545
M16
G05
M30
