G04 #@! TF.GenerationSoftware,KiCad,Pcbnew,8.0.1*
G04 #@! TF.CreationDate,2024-03-23T12:26:16-07:00*
G04 #@! TF.ProjectId,rpi-simplex-clock-hat,7270692d-7369-46d7-906c-65782d636c6f,1*
G04 #@! TF.SameCoordinates,Original*
G04 #@! TF.FileFunction,Legend,Bot*
G04 #@! TF.FilePolarity,Positive*
%FSLAX46Y46*%
G04 Gerber Fmt 4.6, Leading zero omitted, Abs format (unit mm)*
G04 Created by KiCad (PCBNEW 8.0.1) date 2024-03-23 12:26:16*
%MOMM*%
%LPD*%
G01*
G04 APERTURE LIST*
%ADD10C,0.300000*%
%ADD11C,0.150000*%
%ADD12C,0.120000*%
G04 APERTURE END LIST*
D10*
X136394536Y-93421900D02*
X136215965Y-93481423D01*
X136215965Y-93481423D02*
X135918346Y-93481423D01*
X135918346Y-93481423D02*
X135799298Y-93421900D01*
X135799298Y-93421900D02*
X135739774Y-93362376D01*
X135739774Y-93362376D02*
X135680251Y-93243328D01*
X135680251Y-93243328D02*
X135680251Y-93124280D01*
X135680251Y-93124280D02*
X135739774Y-93005233D01*
X135739774Y-93005233D02*
X135799298Y-92945709D01*
X135799298Y-92945709D02*
X135918346Y-92886185D01*
X135918346Y-92886185D02*
X136156441Y-92826661D01*
X136156441Y-92826661D02*
X136275489Y-92767138D01*
X136275489Y-92767138D02*
X136335012Y-92707614D01*
X136335012Y-92707614D02*
X136394536Y-92588566D01*
X136394536Y-92588566D02*
X136394536Y-92469519D01*
X136394536Y-92469519D02*
X136335012Y-92350471D01*
X136335012Y-92350471D02*
X136275489Y-92290947D01*
X136275489Y-92290947D02*
X136156441Y-92231423D01*
X136156441Y-92231423D02*
X135858822Y-92231423D01*
X135858822Y-92231423D02*
X135680251Y-92290947D01*
X134906441Y-92886185D02*
X134906441Y-93481423D01*
X135323108Y-92231423D02*
X134906441Y-92886185D01*
X134906441Y-92886185D02*
X134489775Y-92231423D01*
X134073107Y-93481423D02*
X134073107Y-92231423D01*
X134073107Y-92231423D02*
X133358822Y-93481423D01*
X133358822Y-93481423D02*
X133358822Y-92231423D01*
X132049298Y-93362376D02*
X132108822Y-93421900D01*
X132108822Y-93421900D02*
X132287393Y-93481423D01*
X132287393Y-93481423D02*
X132406441Y-93481423D01*
X132406441Y-93481423D02*
X132585012Y-93421900D01*
X132585012Y-93421900D02*
X132704060Y-93302852D01*
X132704060Y-93302852D02*
X132763583Y-93183804D01*
X132763583Y-93183804D02*
X132823107Y-92945709D01*
X132823107Y-92945709D02*
X132823107Y-92767138D01*
X132823107Y-92767138D02*
X132763583Y-92529042D01*
X132763583Y-92529042D02*
X132704060Y-92409995D01*
X132704060Y-92409995D02*
X132585012Y-92290947D01*
X132585012Y-92290947D02*
X132406441Y-92231423D01*
X132406441Y-92231423D02*
X132287393Y-92231423D01*
X132287393Y-92231423D02*
X132108822Y-92290947D01*
X132108822Y-92290947D02*
X132049298Y-92350471D01*
X156666917Y-97173685D02*
X156595489Y-97102257D01*
X156595489Y-97102257D02*
X156452632Y-97030828D01*
X156452632Y-97030828D02*
X156095489Y-97030828D01*
X156095489Y-97030828D02*
X155952632Y-97102257D01*
X155952632Y-97102257D02*
X155881203Y-97173685D01*
X155881203Y-97173685D02*
X155809774Y-97316542D01*
X155809774Y-97316542D02*
X155809774Y-97459400D01*
X155809774Y-97459400D02*
X155881203Y-97673685D01*
X155881203Y-97673685D02*
X156738346Y-98530828D01*
X156738346Y-98530828D02*
X155809774Y-98530828D01*
X154524061Y-97530828D02*
X154524061Y-98530828D01*
X154881203Y-96959400D02*
X155238346Y-98030828D01*
X155238346Y-98030828D02*
X154309775Y-98030828D01*
X153952632Y-97030828D02*
X153452632Y-98530828D01*
X153452632Y-98530828D02*
X152952632Y-97030828D01*
X152524061Y-98102257D02*
X151809776Y-98102257D01*
X152666918Y-98530828D02*
X152166918Y-97030828D01*
X152166918Y-97030828D02*
X151666918Y-98530828D01*
X150309776Y-98387971D02*
X150381204Y-98459400D01*
X150381204Y-98459400D02*
X150595490Y-98530828D01*
X150595490Y-98530828D02*
X150738347Y-98530828D01*
X150738347Y-98530828D02*
X150952633Y-98459400D01*
X150952633Y-98459400D02*
X151095490Y-98316542D01*
X151095490Y-98316542D02*
X151166919Y-98173685D01*
X151166919Y-98173685D02*
X151238347Y-97887971D01*
X151238347Y-97887971D02*
X151238347Y-97673685D01*
X151238347Y-97673685D02*
X151166919Y-97387971D01*
X151166919Y-97387971D02*
X151095490Y-97245114D01*
X151095490Y-97245114D02*
X150952633Y-97102257D01*
X150952633Y-97102257D02*
X150738347Y-97030828D01*
X150738347Y-97030828D02*
X150595490Y-97030828D01*
X150595490Y-97030828D02*
X150381204Y-97102257D01*
X150381204Y-97102257D02*
X150309776Y-97173685D01*
X147189536Y-92350471D02*
X147130012Y-92290947D01*
X147130012Y-92290947D02*
X147010965Y-92231423D01*
X147010965Y-92231423D02*
X146713346Y-92231423D01*
X146713346Y-92231423D02*
X146594298Y-92290947D01*
X146594298Y-92290947D02*
X146534774Y-92350471D01*
X146534774Y-92350471D02*
X146475251Y-92469519D01*
X146475251Y-92469519D02*
X146475251Y-92588566D01*
X146475251Y-92588566D02*
X146534774Y-92767138D01*
X146534774Y-92767138D02*
X147249060Y-93481423D01*
X147249060Y-93481423D02*
X146475251Y-93481423D01*
X145403822Y-92648090D02*
X145403822Y-93481423D01*
X145701441Y-92171900D02*
X145999060Y-93064757D01*
X145999060Y-93064757D02*
X145225251Y-93064757D01*
X144927632Y-92231423D02*
X144510965Y-93481423D01*
X144510965Y-93481423D02*
X144094299Y-92231423D01*
X143737155Y-93124280D02*
X143141917Y-93124280D01*
X143856203Y-93481423D02*
X143439536Y-92231423D01*
X143439536Y-92231423D02*
X143022870Y-93481423D01*
X141891917Y-93362376D02*
X141951441Y-93421900D01*
X141951441Y-93421900D02*
X142130012Y-93481423D01*
X142130012Y-93481423D02*
X142249060Y-93481423D01*
X142249060Y-93481423D02*
X142427631Y-93421900D01*
X142427631Y-93421900D02*
X142546679Y-93302852D01*
X142546679Y-93302852D02*
X142606202Y-93183804D01*
X142606202Y-93183804D02*
X142665726Y-92945709D01*
X142665726Y-92945709D02*
X142665726Y-92767138D01*
X142665726Y-92767138D02*
X142606202Y-92529042D01*
X142606202Y-92529042D02*
X142546679Y-92409995D01*
X142546679Y-92409995D02*
X142427631Y-92290947D01*
X142427631Y-92290947D02*
X142249060Y-92231423D01*
X142249060Y-92231423D02*
X142130012Y-92231423D01*
X142130012Y-92231423D02*
X141951441Y-92290947D01*
X141951441Y-92290947D02*
X141891917Y-92350471D01*
D11*
X146700839Y-96942256D02*
X146557982Y-96989875D01*
X146557982Y-96989875D02*
X146319887Y-96989875D01*
X146319887Y-96989875D02*
X146224649Y-96942256D01*
X146224649Y-96942256D02*
X146177030Y-96894636D01*
X146177030Y-96894636D02*
X146129411Y-96799398D01*
X146129411Y-96799398D02*
X146129411Y-96704160D01*
X146129411Y-96704160D02*
X146177030Y-96608922D01*
X146177030Y-96608922D02*
X146224649Y-96561303D01*
X146224649Y-96561303D02*
X146319887Y-96513684D01*
X146319887Y-96513684D02*
X146510363Y-96466065D01*
X146510363Y-96466065D02*
X146605601Y-96418446D01*
X146605601Y-96418446D02*
X146653220Y-96370827D01*
X146653220Y-96370827D02*
X146700839Y-96275589D01*
X146700839Y-96275589D02*
X146700839Y-96180351D01*
X146700839Y-96180351D02*
X146653220Y-96085113D01*
X146653220Y-96085113D02*
X146605601Y-96037494D01*
X146605601Y-96037494D02*
X146510363Y-95989875D01*
X146510363Y-95989875D02*
X146272268Y-95989875D01*
X146272268Y-95989875D02*
X146129411Y-96037494D01*
X145700839Y-96989875D02*
X145700839Y-96323208D01*
X145700839Y-95989875D02*
X145748458Y-96037494D01*
X145748458Y-96037494D02*
X145700839Y-96085113D01*
X145700839Y-96085113D02*
X145653220Y-96037494D01*
X145653220Y-96037494D02*
X145700839Y-95989875D01*
X145700839Y-95989875D02*
X145700839Y-96085113D01*
X145224649Y-96989875D02*
X145224649Y-96323208D01*
X145224649Y-96418446D02*
X145177030Y-96370827D01*
X145177030Y-96370827D02*
X145081792Y-96323208D01*
X145081792Y-96323208D02*
X144938935Y-96323208D01*
X144938935Y-96323208D02*
X144843697Y-96370827D01*
X144843697Y-96370827D02*
X144796078Y-96466065D01*
X144796078Y-96466065D02*
X144796078Y-96989875D01*
X144796078Y-96466065D02*
X144748459Y-96370827D01*
X144748459Y-96370827D02*
X144653221Y-96323208D01*
X144653221Y-96323208D02*
X144510364Y-96323208D01*
X144510364Y-96323208D02*
X144415125Y-96370827D01*
X144415125Y-96370827D02*
X144367506Y-96466065D01*
X144367506Y-96466065D02*
X144367506Y-96989875D01*
X143891316Y-96323208D02*
X143891316Y-97323208D01*
X143891316Y-96370827D02*
X143796078Y-96323208D01*
X143796078Y-96323208D02*
X143605602Y-96323208D01*
X143605602Y-96323208D02*
X143510364Y-96370827D01*
X143510364Y-96370827D02*
X143462745Y-96418446D01*
X143462745Y-96418446D02*
X143415126Y-96513684D01*
X143415126Y-96513684D02*
X143415126Y-96799398D01*
X143415126Y-96799398D02*
X143462745Y-96894636D01*
X143462745Y-96894636D02*
X143510364Y-96942256D01*
X143510364Y-96942256D02*
X143605602Y-96989875D01*
X143605602Y-96989875D02*
X143796078Y-96989875D01*
X143796078Y-96989875D02*
X143891316Y-96942256D01*
X142843697Y-96989875D02*
X142938935Y-96942256D01*
X142938935Y-96942256D02*
X142986554Y-96847017D01*
X142986554Y-96847017D02*
X142986554Y-95989875D01*
X142081792Y-96942256D02*
X142177030Y-96989875D01*
X142177030Y-96989875D02*
X142367506Y-96989875D01*
X142367506Y-96989875D02*
X142462744Y-96942256D01*
X142462744Y-96942256D02*
X142510363Y-96847017D01*
X142510363Y-96847017D02*
X142510363Y-96466065D01*
X142510363Y-96466065D02*
X142462744Y-96370827D01*
X142462744Y-96370827D02*
X142367506Y-96323208D01*
X142367506Y-96323208D02*
X142177030Y-96323208D01*
X142177030Y-96323208D02*
X142081792Y-96370827D01*
X142081792Y-96370827D02*
X142034173Y-96466065D01*
X142034173Y-96466065D02*
X142034173Y-96561303D01*
X142034173Y-96561303D02*
X142510363Y-96656541D01*
X141700839Y-96989875D02*
X141177030Y-96323208D01*
X141700839Y-96323208D02*
X141177030Y-96989875D01*
X139462744Y-96894636D02*
X139510363Y-96942256D01*
X139510363Y-96942256D02*
X139653220Y-96989875D01*
X139653220Y-96989875D02*
X139748458Y-96989875D01*
X139748458Y-96989875D02*
X139891315Y-96942256D01*
X139891315Y-96942256D02*
X139986553Y-96847017D01*
X139986553Y-96847017D02*
X140034172Y-96751779D01*
X140034172Y-96751779D02*
X140081791Y-96561303D01*
X140081791Y-96561303D02*
X140081791Y-96418446D01*
X140081791Y-96418446D02*
X140034172Y-96227970D01*
X140034172Y-96227970D02*
X139986553Y-96132732D01*
X139986553Y-96132732D02*
X139891315Y-96037494D01*
X139891315Y-96037494D02*
X139748458Y-95989875D01*
X139748458Y-95989875D02*
X139653220Y-95989875D01*
X139653220Y-95989875D02*
X139510363Y-96037494D01*
X139510363Y-96037494D02*
X139462744Y-96085113D01*
X138891315Y-96989875D02*
X138986553Y-96942256D01*
X138986553Y-96942256D02*
X139034172Y-96847017D01*
X139034172Y-96847017D02*
X139034172Y-95989875D01*
X138367505Y-96989875D02*
X138462743Y-96942256D01*
X138462743Y-96942256D02*
X138510362Y-96894636D01*
X138510362Y-96894636D02*
X138557981Y-96799398D01*
X138557981Y-96799398D02*
X138557981Y-96513684D01*
X138557981Y-96513684D02*
X138510362Y-96418446D01*
X138510362Y-96418446D02*
X138462743Y-96370827D01*
X138462743Y-96370827D02*
X138367505Y-96323208D01*
X138367505Y-96323208D02*
X138224648Y-96323208D01*
X138224648Y-96323208D02*
X138129410Y-96370827D01*
X138129410Y-96370827D02*
X138081791Y-96418446D01*
X138081791Y-96418446D02*
X138034172Y-96513684D01*
X138034172Y-96513684D02*
X138034172Y-96799398D01*
X138034172Y-96799398D02*
X138081791Y-96894636D01*
X138081791Y-96894636D02*
X138129410Y-96942256D01*
X138129410Y-96942256D02*
X138224648Y-96989875D01*
X138224648Y-96989875D02*
X138367505Y-96989875D01*
X137177029Y-96942256D02*
X137272267Y-96989875D01*
X137272267Y-96989875D02*
X137462743Y-96989875D01*
X137462743Y-96989875D02*
X137557981Y-96942256D01*
X137557981Y-96942256D02*
X137605600Y-96894636D01*
X137605600Y-96894636D02*
X137653219Y-96799398D01*
X137653219Y-96799398D02*
X137653219Y-96513684D01*
X137653219Y-96513684D02*
X137605600Y-96418446D01*
X137605600Y-96418446D02*
X137557981Y-96370827D01*
X137557981Y-96370827D02*
X137462743Y-96323208D01*
X137462743Y-96323208D02*
X137272267Y-96323208D01*
X137272267Y-96323208D02*
X137177029Y-96370827D01*
X136748457Y-96989875D02*
X136748457Y-95989875D01*
X136653219Y-96608922D02*
X136367505Y-96989875D01*
X136367505Y-96323208D02*
X136748457Y-96704160D01*
X134605600Y-96894636D02*
X134653219Y-96942256D01*
X134653219Y-96942256D02*
X134796076Y-96989875D01*
X134796076Y-96989875D02*
X134891314Y-96989875D01*
X134891314Y-96989875D02*
X135034171Y-96942256D01*
X135034171Y-96942256D02*
X135129409Y-96847017D01*
X135129409Y-96847017D02*
X135177028Y-96751779D01*
X135177028Y-96751779D02*
X135224647Y-96561303D01*
X135224647Y-96561303D02*
X135224647Y-96418446D01*
X135224647Y-96418446D02*
X135177028Y-96227970D01*
X135177028Y-96227970D02*
X135129409Y-96132732D01*
X135129409Y-96132732D02*
X135034171Y-96037494D01*
X135034171Y-96037494D02*
X134891314Y-95989875D01*
X134891314Y-95989875D02*
X134796076Y-95989875D01*
X134796076Y-95989875D02*
X134653219Y-96037494D01*
X134653219Y-96037494D02*
X134605600Y-96085113D01*
X134034171Y-96989875D02*
X134129409Y-96942256D01*
X134129409Y-96942256D02*
X134177028Y-96894636D01*
X134177028Y-96894636D02*
X134224647Y-96799398D01*
X134224647Y-96799398D02*
X134224647Y-96513684D01*
X134224647Y-96513684D02*
X134177028Y-96418446D01*
X134177028Y-96418446D02*
X134129409Y-96370827D01*
X134129409Y-96370827D02*
X134034171Y-96323208D01*
X134034171Y-96323208D02*
X133891314Y-96323208D01*
X133891314Y-96323208D02*
X133796076Y-96370827D01*
X133796076Y-96370827D02*
X133748457Y-96418446D01*
X133748457Y-96418446D02*
X133700838Y-96513684D01*
X133700838Y-96513684D02*
X133700838Y-96799398D01*
X133700838Y-96799398D02*
X133748457Y-96894636D01*
X133748457Y-96894636D02*
X133796076Y-96942256D01*
X133796076Y-96942256D02*
X133891314Y-96989875D01*
X133891314Y-96989875D02*
X134034171Y-96989875D01*
X133272266Y-96323208D02*
X133272266Y-96989875D01*
X133272266Y-96418446D02*
X133224647Y-96370827D01*
X133224647Y-96370827D02*
X133129409Y-96323208D01*
X133129409Y-96323208D02*
X132986552Y-96323208D01*
X132986552Y-96323208D02*
X132891314Y-96370827D01*
X132891314Y-96370827D02*
X132843695Y-96466065D01*
X132843695Y-96466065D02*
X132843695Y-96989875D01*
X132510361Y-96323208D02*
X132129409Y-96323208D01*
X132367504Y-95989875D02*
X132367504Y-96847017D01*
X132367504Y-96847017D02*
X132319885Y-96942256D01*
X132319885Y-96942256D02*
X132224647Y-96989875D01*
X132224647Y-96989875D02*
X132129409Y-96989875D01*
X131796075Y-96989875D02*
X131796075Y-96323208D01*
X131796075Y-96513684D02*
X131748456Y-96418446D01*
X131748456Y-96418446D02*
X131700837Y-96370827D01*
X131700837Y-96370827D02*
X131605599Y-96323208D01*
X131605599Y-96323208D02*
X131510361Y-96323208D01*
X131034170Y-96989875D02*
X131129408Y-96942256D01*
X131129408Y-96942256D02*
X131177027Y-96894636D01*
X131177027Y-96894636D02*
X131224646Y-96799398D01*
X131224646Y-96799398D02*
X131224646Y-96513684D01*
X131224646Y-96513684D02*
X131177027Y-96418446D01*
X131177027Y-96418446D02*
X131129408Y-96370827D01*
X131129408Y-96370827D02*
X131034170Y-96323208D01*
X131034170Y-96323208D02*
X130891313Y-96323208D01*
X130891313Y-96323208D02*
X130796075Y-96370827D01*
X130796075Y-96370827D02*
X130748456Y-96418446D01*
X130748456Y-96418446D02*
X130700837Y-96513684D01*
X130700837Y-96513684D02*
X130700837Y-96799398D01*
X130700837Y-96799398D02*
X130748456Y-96894636D01*
X130748456Y-96894636D02*
X130796075Y-96942256D01*
X130796075Y-96942256D02*
X130891313Y-96989875D01*
X130891313Y-96989875D02*
X131034170Y-96989875D01*
X130129408Y-96989875D02*
X130224646Y-96942256D01*
X130224646Y-96942256D02*
X130272265Y-96847017D01*
X130272265Y-96847017D02*
X130272265Y-95989875D01*
X129605598Y-96989875D02*
X129700836Y-96942256D01*
X129700836Y-96942256D02*
X129748455Y-96847017D01*
X129748455Y-96847017D02*
X129748455Y-95989875D01*
X128843693Y-96942256D02*
X128938931Y-96989875D01*
X128938931Y-96989875D02*
X129129407Y-96989875D01*
X129129407Y-96989875D02*
X129224645Y-96942256D01*
X129224645Y-96942256D02*
X129272264Y-96847017D01*
X129272264Y-96847017D02*
X129272264Y-96466065D01*
X129272264Y-96466065D02*
X129224645Y-96370827D01*
X129224645Y-96370827D02*
X129129407Y-96323208D01*
X129129407Y-96323208D02*
X128938931Y-96323208D01*
X128938931Y-96323208D02*
X128843693Y-96370827D01*
X128843693Y-96370827D02*
X128796074Y-96466065D01*
X128796074Y-96466065D02*
X128796074Y-96561303D01*
X128796074Y-96561303D02*
X129272264Y-96656541D01*
X128367502Y-96989875D02*
X128367502Y-96323208D01*
X128367502Y-96513684D02*
X128319883Y-96418446D01*
X128319883Y-96418446D02*
X128272264Y-96370827D01*
X128272264Y-96370827D02*
X128177026Y-96323208D01*
X128177026Y-96323208D02*
X128081788Y-96323208D01*
X126415121Y-96989875D02*
X126748454Y-96513684D01*
X126986549Y-96989875D02*
X126986549Y-95989875D01*
X126986549Y-95989875D02*
X126605597Y-95989875D01*
X126605597Y-95989875D02*
X126510359Y-96037494D01*
X126510359Y-96037494D02*
X126462740Y-96085113D01*
X126462740Y-96085113D02*
X126415121Y-96180351D01*
X126415121Y-96180351D02*
X126415121Y-96323208D01*
X126415121Y-96323208D02*
X126462740Y-96418446D01*
X126462740Y-96418446D02*
X126510359Y-96466065D01*
X126510359Y-96466065D02*
X126605597Y-96513684D01*
X126605597Y-96513684D02*
X126986549Y-96513684D01*
X125605597Y-96942256D02*
X125700835Y-96989875D01*
X125700835Y-96989875D02*
X125891311Y-96989875D01*
X125891311Y-96989875D02*
X125986549Y-96942256D01*
X125986549Y-96942256D02*
X126034168Y-96847017D01*
X126034168Y-96847017D02*
X126034168Y-96466065D01*
X126034168Y-96466065D02*
X125986549Y-96370827D01*
X125986549Y-96370827D02*
X125891311Y-96323208D01*
X125891311Y-96323208D02*
X125700835Y-96323208D01*
X125700835Y-96323208D02*
X125605597Y-96370827D01*
X125605597Y-96370827D02*
X125557978Y-96466065D01*
X125557978Y-96466065D02*
X125557978Y-96561303D01*
X125557978Y-96561303D02*
X126034168Y-96656541D01*
X125224644Y-96323208D02*
X124986549Y-96989875D01*
X124986549Y-96989875D02*
X124748454Y-96323208D01*
X123081787Y-96989875D02*
X123653215Y-96989875D01*
X123367501Y-96989875D02*
X123367501Y-95989875D01*
X123367501Y-95989875D02*
X123462739Y-96132732D01*
X123462739Y-96132732D02*
X123557977Y-96227970D01*
X123557977Y-96227970D02*
X123653215Y-96275589D01*
X146653220Y-98599819D02*
X146653220Y-97599819D01*
X146224649Y-98599819D02*
X146224649Y-98076009D01*
X146224649Y-98076009D02*
X146272268Y-97980771D01*
X146272268Y-97980771D02*
X146367506Y-97933152D01*
X146367506Y-97933152D02*
X146510363Y-97933152D01*
X146510363Y-97933152D02*
X146605601Y-97980771D01*
X146605601Y-97980771D02*
X146653220Y-98028390D01*
X145891315Y-97933152D02*
X145510363Y-97933152D01*
X145748458Y-97599819D02*
X145748458Y-98456961D01*
X145748458Y-98456961D02*
X145700839Y-98552200D01*
X145700839Y-98552200D02*
X145605601Y-98599819D01*
X145605601Y-98599819D02*
X145510363Y-98599819D01*
X145319886Y-97933152D02*
X144938934Y-97933152D01*
X145177029Y-97599819D02*
X145177029Y-98456961D01*
X145177029Y-98456961D02*
X145129410Y-98552200D01*
X145129410Y-98552200D02*
X145034172Y-98599819D01*
X145034172Y-98599819D02*
X144938934Y-98599819D01*
X144605600Y-97933152D02*
X144605600Y-98933152D01*
X144605600Y-97980771D02*
X144510362Y-97933152D01*
X144510362Y-97933152D02*
X144319886Y-97933152D01*
X144319886Y-97933152D02*
X144224648Y-97980771D01*
X144224648Y-97980771D02*
X144177029Y-98028390D01*
X144177029Y-98028390D02*
X144129410Y-98123628D01*
X144129410Y-98123628D02*
X144129410Y-98409342D01*
X144129410Y-98409342D02*
X144177029Y-98504580D01*
X144177029Y-98504580D02*
X144224648Y-98552200D01*
X144224648Y-98552200D02*
X144319886Y-98599819D01*
X144319886Y-98599819D02*
X144510362Y-98599819D01*
X144510362Y-98599819D02*
X144605600Y-98552200D01*
X143748457Y-98552200D02*
X143653219Y-98599819D01*
X143653219Y-98599819D02*
X143462743Y-98599819D01*
X143462743Y-98599819D02*
X143367505Y-98552200D01*
X143367505Y-98552200D02*
X143319886Y-98456961D01*
X143319886Y-98456961D02*
X143319886Y-98409342D01*
X143319886Y-98409342D02*
X143367505Y-98314104D01*
X143367505Y-98314104D02*
X143462743Y-98266485D01*
X143462743Y-98266485D02*
X143605600Y-98266485D01*
X143605600Y-98266485D02*
X143700838Y-98218866D01*
X143700838Y-98218866D02*
X143748457Y-98123628D01*
X143748457Y-98123628D02*
X143748457Y-98076009D01*
X143748457Y-98076009D02*
X143700838Y-97980771D01*
X143700838Y-97980771D02*
X143605600Y-97933152D01*
X143605600Y-97933152D02*
X143462743Y-97933152D01*
X143462743Y-97933152D02*
X143367505Y-97980771D01*
X142891314Y-98504580D02*
X142843695Y-98552200D01*
X142843695Y-98552200D02*
X142891314Y-98599819D01*
X142891314Y-98599819D02*
X142938933Y-98552200D01*
X142938933Y-98552200D02*
X142891314Y-98504580D01*
X142891314Y-98504580D02*
X142891314Y-98599819D01*
X142891314Y-97980771D02*
X142843695Y-98028390D01*
X142843695Y-98028390D02*
X142891314Y-98076009D01*
X142891314Y-98076009D02*
X142938933Y-98028390D01*
X142938933Y-98028390D02*
X142891314Y-97980771D01*
X142891314Y-97980771D02*
X142891314Y-98076009D01*
X141700839Y-97552200D02*
X142557981Y-98837914D01*
X140653220Y-97552200D02*
X141510362Y-98837914D01*
X139891315Y-97933152D02*
X139891315Y-98742676D01*
X139891315Y-98742676D02*
X139938934Y-98837914D01*
X139938934Y-98837914D02*
X139986553Y-98885533D01*
X139986553Y-98885533D02*
X140081791Y-98933152D01*
X140081791Y-98933152D02*
X140224648Y-98933152D01*
X140224648Y-98933152D02*
X140319886Y-98885533D01*
X139891315Y-98552200D02*
X139986553Y-98599819D01*
X139986553Y-98599819D02*
X140177029Y-98599819D01*
X140177029Y-98599819D02*
X140272267Y-98552200D01*
X140272267Y-98552200D02*
X140319886Y-98504580D01*
X140319886Y-98504580D02*
X140367505Y-98409342D01*
X140367505Y-98409342D02*
X140367505Y-98123628D01*
X140367505Y-98123628D02*
X140319886Y-98028390D01*
X140319886Y-98028390D02*
X140272267Y-97980771D01*
X140272267Y-97980771D02*
X140177029Y-97933152D01*
X140177029Y-97933152D02*
X139986553Y-97933152D01*
X139986553Y-97933152D02*
X139891315Y-97980771D01*
X139415124Y-98599819D02*
X139415124Y-97933152D01*
X139415124Y-97599819D02*
X139462743Y-97647438D01*
X139462743Y-97647438D02*
X139415124Y-97695057D01*
X139415124Y-97695057D02*
X139367505Y-97647438D01*
X139367505Y-97647438D02*
X139415124Y-97599819D01*
X139415124Y-97599819D02*
X139415124Y-97695057D01*
X139081791Y-97933152D02*
X138700839Y-97933152D01*
X138938934Y-97599819D02*
X138938934Y-98456961D01*
X138938934Y-98456961D02*
X138891315Y-98552200D01*
X138891315Y-98552200D02*
X138796077Y-98599819D01*
X138796077Y-98599819D02*
X138700839Y-98599819D01*
X138367505Y-98599819D02*
X138367505Y-97599819D01*
X137938934Y-98599819D02*
X137938934Y-98076009D01*
X137938934Y-98076009D02*
X137986553Y-97980771D01*
X137986553Y-97980771D02*
X138081791Y-97933152D01*
X138081791Y-97933152D02*
X138224648Y-97933152D01*
X138224648Y-97933152D02*
X138319886Y-97980771D01*
X138319886Y-97980771D02*
X138367505Y-98028390D01*
X137034172Y-97933152D02*
X137034172Y-98599819D01*
X137462743Y-97933152D02*
X137462743Y-98456961D01*
X137462743Y-98456961D02*
X137415124Y-98552200D01*
X137415124Y-98552200D02*
X137319886Y-98599819D01*
X137319886Y-98599819D02*
X137177029Y-98599819D01*
X137177029Y-98599819D02*
X137081791Y-98552200D01*
X137081791Y-98552200D02*
X137034172Y-98504580D01*
X136557981Y-98599819D02*
X136557981Y-97599819D01*
X136557981Y-97980771D02*
X136462743Y-97933152D01*
X136462743Y-97933152D02*
X136272267Y-97933152D01*
X136272267Y-97933152D02*
X136177029Y-97980771D01*
X136177029Y-97980771D02*
X136129410Y-98028390D01*
X136129410Y-98028390D02*
X136081791Y-98123628D01*
X136081791Y-98123628D02*
X136081791Y-98409342D01*
X136081791Y-98409342D02*
X136129410Y-98504580D01*
X136129410Y-98504580D02*
X136177029Y-98552200D01*
X136177029Y-98552200D02*
X136272267Y-98599819D01*
X136272267Y-98599819D02*
X136462743Y-98599819D01*
X136462743Y-98599819D02*
X136557981Y-98552200D01*
X135653219Y-98504580D02*
X135605600Y-98552200D01*
X135605600Y-98552200D02*
X135653219Y-98599819D01*
X135653219Y-98599819D02*
X135700838Y-98552200D01*
X135700838Y-98552200D02*
X135653219Y-98504580D01*
X135653219Y-98504580D02*
X135653219Y-98599819D01*
X134748458Y-98552200D02*
X134843696Y-98599819D01*
X134843696Y-98599819D02*
X135034172Y-98599819D01*
X135034172Y-98599819D02*
X135129410Y-98552200D01*
X135129410Y-98552200D02*
X135177029Y-98504580D01*
X135177029Y-98504580D02*
X135224648Y-98409342D01*
X135224648Y-98409342D02*
X135224648Y-98123628D01*
X135224648Y-98123628D02*
X135177029Y-98028390D01*
X135177029Y-98028390D02*
X135129410Y-97980771D01*
X135129410Y-97980771D02*
X135034172Y-97933152D01*
X135034172Y-97933152D02*
X134843696Y-97933152D01*
X134843696Y-97933152D02*
X134748458Y-97980771D01*
X134177029Y-98599819D02*
X134272267Y-98552200D01*
X134272267Y-98552200D02*
X134319886Y-98504580D01*
X134319886Y-98504580D02*
X134367505Y-98409342D01*
X134367505Y-98409342D02*
X134367505Y-98123628D01*
X134367505Y-98123628D02*
X134319886Y-98028390D01*
X134319886Y-98028390D02*
X134272267Y-97980771D01*
X134272267Y-97980771D02*
X134177029Y-97933152D01*
X134177029Y-97933152D02*
X134034172Y-97933152D01*
X134034172Y-97933152D02*
X133938934Y-97980771D01*
X133938934Y-97980771D02*
X133891315Y-98028390D01*
X133891315Y-98028390D02*
X133843696Y-98123628D01*
X133843696Y-98123628D02*
X133843696Y-98409342D01*
X133843696Y-98409342D02*
X133891315Y-98504580D01*
X133891315Y-98504580D02*
X133938934Y-98552200D01*
X133938934Y-98552200D02*
X134034172Y-98599819D01*
X134034172Y-98599819D02*
X134177029Y-98599819D01*
X133415124Y-98599819D02*
X133415124Y-97933152D01*
X133415124Y-98028390D02*
X133367505Y-97980771D01*
X133367505Y-97980771D02*
X133272267Y-97933152D01*
X133272267Y-97933152D02*
X133129410Y-97933152D01*
X133129410Y-97933152D02*
X133034172Y-97980771D01*
X133034172Y-97980771D02*
X132986553Y-98076009D01*
X132986553Y-98076009D02*
X132986553Y-98599819D01*
X132986553Y-98076009D02*
X132938934Y-97980771D01*
X132938934Y-97980771D02*
X132843696Y-97933152D01*
X132843696Y-97933152D02*
X132700839Y-97933152D01*
X132700839Y-97933152D02*
X132605600Y-97980771D01*
X132605600Y-97980771D02*
X132557981Y-98076009D01*
X132557981Y-98076009D02*
X132557981Y-98599819D01*
X131367506Y-97552200D02*
X132224648Y-98837914D01*
X131034172Y-98599819D02*
X131034172Y-97599819D01*
X130605601Y-98599819D02*
X130605601Y-98076009D01*
X130605601Y-98076009D02*
X130653220Y-97980771D01*
X130653220Y-97980771D02*
X130748458Y-97933152D01*
X130748458Y-97933152D02*
X130891315Y-97933152D01*
X130891315Y-97933152D02*
X130986553Y-97980771D01*
X130986553Y-97980771D02*
X131034172Y-98028390D01*
X130129410Y-98599819D02*
X130129410Y-97599819D01*
X129700839Y-98599819D02*
X129700839Y-98076009D01*
X129700839Y-98076009D02*
X129748458Y-97980771D01*
X129748458Y-97980771D02*
X129843696Y-97933152D01*
X129843696Y-97933152D02*
X129986553Y-97933152D01*
X129986553Y-97933152D02*
X130081791Y-97980771D01*
X130081791Y-97980771D02*
X130129410Y-98028390D01*
X128796077Y-98599819D02*
X128796077Y-98076009D01*
X128796077Y-98076009D02*
X128843696Y-97980771D01*
X128843696Y-97980771D02*
X128938934Y-97933152D01*
X128938934Y-97933152D02*
X129129410Y-97933152D01*
X129129410Y-97933152D02*
X129224648Y-97980771D01*
X128796077Y-98552200D02*
X128891315Y-98599819D01*
X128891315Y-98599819D02*
X129129410Y-98599819D01*
X129129410Y-98599819D02*
X129224648Y-98552200D01*
X129224648Y-98552200D02*
X129272267Y-98456961D01*
X129272267Y-98456961D02*
X129272267Y-98361723D01*
X129272267Y-98361723D02*
X129224648Y-98266485D01*
X129224648Y-98266485D02*
X129129410Y-98218866D01*
X129129410Y-98218866D02*
X128891315Y-98218866D01*
X128891315Y-98218866D02*
X128796077Y-98171247D01*
X128319886Y-98599819D02*
X128319886Y-97933152D01*
X128319886Y-98123628D02*
X128272267Y-98028390D01*
X128272267Y-98028390D02*
X128224648Y-97980771D01*
X128224648Y-97980771D02*
X128129410Y-97933152D01*
X128129410Y-97933152D02*
X128034172Y-97933152D01*
X127843695Y-97933152D02*
X127462743Y-97933152D01*
X127700838Y-97599819D02*
X127700838Y-98456961D01*
X127700838Y-98456961D02*
X127653219Y-98552200D01*
X127653219Y-98552200D02*
X127557981Y-98599819D01*
X127557981Y-98599819D02*
X127462743Y-98599819D01*
X126748457Y-98552200D02*
X126843695Y-98599819D01*
X126843695Y-98599819D02*
X127034171Y-98599819D01*
X127034171Y-98599819D02*
X127129409Y-98552200D01*
X127129409Y-98552200D02*
X127177028Y-98456961D01*
X127177028Y-98456961D02*
X127177028Y-98076009D01*
X127177028Y-98076009D02*
X127129409Y-97980771D01*
X127129409Y-97980771D02*
X127034171Y-97933152D01*
X127034171Y-97933152D02*
X126843695Y-97933152D01*
X126843695Y-97933152D02*
X126748457Y-97980771D01*
X126748457Y-97980771D02*
X126700838Y-98076009D01*
X126700838Y-98076009D02*
X126700838Y-98171247D01*
X126700838Y-98171247D02*
X127177028Y-98266485D01*
X125557981Y-97552200D02*
X126415123Y-98837914D01*
X125224647Y-98599819D02*
X125224647Y-97933152D01*
X125224647Y-98123628D02*
X125177028Y-98028390D01*
X125177028Y-98028390D02*
X125129409Y-97980771D01*
X125129409Y-97980771D02*
X125034171Y-97933152D01*
X125034171Y-97933152D02*
X124938933Y-97933152D01*
X124605599Y-97933152D02*
X124605599Y-98933152D01*
X124605599Y-97980771D02*
X124510361Y-97933152D01*
X124510361Y-97933152D02*
X124319885Y-97933152D01*
X124319885Y-97933152D02*
X124224647Y-97980771D01*
X124224647Y-97980771D02*
X124177028Y-98028390D01*
X124177028Y-98028390D02*
X124129409Y-98123628D01*
X124129409Y-98123628D02*
X124129409Y-98409342D01*
X124129409Y-98409342D02*
X124177028Y-98504580D01*
X124177028Y-98504580D02*
X124224647Y-98552200D01*
X124224647Y-98552200D02*
X124319885Y-98599819D01*
X124319885Y-98599819D02*
X124510361Y-98599819D01*
X124510361Y-98599819D02*
X124605599Y-98552200D01*
X123700837Y-98599819D02*
X123700837Y-97933152D01*
X123700837Y-97599819D02*
X123748456Y-97647438D01*
X123748456Y-97647438D02*
X123700837Y-97695057D01*
X123700837Y-97695057D02*
X123653218Y-97647438D01*
X123653218Y-97647438D02*
X123700837Y-97599819D01*
X123700837Y-97599819D02*
X123700837Y-97695057D01*
X123224647Y-98218866D02*
X122462743Y-98218866D01*
X122034171Y-98552200D02*
X121938933Y-98599819D01*
X121938933Y-98599819D02*
X121748457Y-98599819D01*
X121748457Y-98599819D02*
X121653219Y-98552200D01*
X121653219Y-98552200D02*
X121605600Y-98456961D01*
X121605600Y-98456961D02*
X121605600Y-98409342D01*
X121605600Y-98409342D02*
X121653219Y-98314104D01*
X121653219Y-98314104D02*
X121748457Y-98266485D01*
X121748457Y-98266485D02*
X121891314Y-98266485D01*
X121891314Y-98266485D02*
X121986552Y-98218866D01*
X121986552Y-98218866D02*
X122034171Y-98123628D01*
X122034171Y-98123628D02*
X122034171Y-98076009D01*
X122034171Y-98076009D02*
X121986552Y-97980771D01*
X121986552Y-97980771D02*
X121891314Y-97933152D01*
X121891314Y-97933152D02*
X121748457Y-97933152D01*
X121748457Y-97933152D02*
X121653219Y-97980771D01*
X121177028Y-98599819D02*
X121177028Y-97933152D01*
X121177028Y-97599819D02*
X121224647Y-97647438D01*
X121224647Y-97647438D02*
X121177028Y-97695057D01*
X121177028Y-97695057D02*
X121129409Y-97647438D01*
X121129409Y-97647438D02*
X121177028Y-97599819D01*
X121177028Y-97599819D02*
X121177028Y-97695057D01*
X120700838Y-98599819D02*
X120700838Y-97933152D01*
X120700838Y-98028390D02*
X120653219Y-97980771D01*
X120653219Y-97980771D02*
X120557981Y-97933152D01*
X120557981Y-97933152D02*
X120415124Y-97933152D01*
X120415124Y-97933152D02*
X120319886Y-97980771D01*
X120319886Y-97980771D02*
X120272267Y-98076009D01*
X120272267Y-98076009D02*
X120272267Y-98599819D01*
X120272267Y-98076009D02*
X120224648Y-97980771D01*
X120224648Y-97980771D02*
X120129410Y-97933152D01*
X120129410Y-97933152D02*
X119986553Y-97933152D01*
X119986553Y-97933152D02*
X119891314Y-97980771D01*
X119891314Y-97980771D02*
X119843695Y-98076009D01*
X119843695Y-98076009D02*
X119843695Y-98599819D01*
X119367505Y-97933152D02*
X119367505Y-98933152D01*
X119367505Y-97980771D02*
X119272267Y-97933152D01*
X119272267Y-97933152D02*
X119081791Y-97933152D01*
X119081791Y-97933152D02*
X118986553Y-97980771D01*
X118986553Y-97980771D02*
X118938934Y-98028390D01*
X118938934Y-98028390D02*
X118891315Y-98123628D01*
X118891315Y-98123628D02*
X118891315Y-98409342D01*
X118891315Y-98409342D02*
X118938934Y-98504580D01*
X118938934Y-98504580D02*
X118986553Y-98552200D01*
X118986553Y-98552200D02*
X119081791Y-98599819D01*
X119081791Y-98599819D02*
X119272267Y-98599819D01*
X119272267Y-98599819D02*
X119367505Y-98552200D01*
X118319886Y-98599819D02*
X118415124Y-98552200D01*
X118415124Y-98552200D02*
X118462743Y-98456961D01*
X118462743Y-98456961D02*
X118462743Y-97599819D01*
X117557981Y-98552200D02*
X117653219Y-98599819D01*
X117653219Y-98599819D02*
X117843695Y-98599819D01*
X117843695Y-98599819D02*
X117938933Y-98552200D01*
X117938933Y-98552200D02*
X117986552Y-98456961D01*
X117986552Y-98456961D02*
X117986552Y-98076009D01*
X117986552Y-98076009D02*
X117938933Y-97980771D01*
X117938933Y-97980771D02*
X117843695Y-97933152D01*
X117843695Y-97933152D02*
X117653219Y-97933152D01*
X117653219Y-97933152D02*
X117557981Y-97980771D01*
X117557981Y-97980771D02*
X117510362Y-98076009D01*
X117510362Y-98076009D02*
X117510362Y-98171247D01*
X117510362Y-98171247D02*
X117986552Y-98266485D01*
X117177028Y-98599819D02*
X116653219Y-97933152D01*
X117177028Y-97933152D02*
X116653219Y-98599819D01*
X116272266Y-98218866D02*
X115510362Y-98218866D01*
X114605600Y-98552200D02*
X114700838Y-98599819D01*
X114700838Y-98599819D02*
X114891314Y-98599819D01*
X114891314Y-98599819D02*
X114986552Y-98552200D01*
X114986552Y-98552200D02*
X115034171Y-98504580D01*
X115034171Y-98504580D02*
X115081790Y-98409342D01*
X115081790Y-98409342D02*
X115081790Y-98123628D01*
X115081790Y-98123628D02*
X115034171Y-98028390D01*
X115034171Y-98028390D02*
X114986552Y-97980771D01*
X114986552Y-97980771D02*
X114891314Y-97933152D01*
X114891314Y-97933152D02*
X114700838Y-97933152D01*
X114700838Y-97933152D02*
X114605600Y-97980771D01*
X114034171Y-98599819D02*
X114129409Y-98552200D01*
X114129409Y-98552200D02*
X114177028Y-98456961D01*
X114177028Y-98456961D02*
X114177028Y-97599819D01*
X113510361Y-98599819D02*
X113605599Y-98552200D01*
X113605599Y-98552200D02*
X113653218Y-98504580D01*
X113653218Y-98504580D02*
X113700837Y-98409342D01*
X113700837Y-98409342D02*
X113700837Y-98123628D01*
X113700837Y-98123628D02*
X113653218Y-98028390D01*
X113653218Y-98028390D02*
X113605599Y-97980771D01*
X113605599Y-97980771D02*
X113510361Y-97933152D01*
X113510361Y-97933152D02*
X113367504Y-97933152D01*
X113367504Y-97933152D02*
X113272266Y-97980771D01*
X113272266Y-97980771D02*
X113224647Y-98028390D01*
X113224647Y-98028390D02*
X113177028Y-98123628D01*
X113177028Y-98123628D02*
X113177028Y-98409342D01*
X113177028Y-98409342D02*
X113224647Y-98504580D01*
X113224647Y-98504580D02*
X113272266Y-98552200D01*
X113272266Y-98552200D02*
X113367504Y-98599819D01*
X113367504Y-98599819D02*
X113510361Y-98599819D01*
X112319885Y-98552200D02*
X112415123Y-98599819D01*
X112415123Y-98599819D02*
X112605599Y-98599819D01*
X112605599Y-98599819D02*
X112700837Y-98552200D01*
X112700837Y-98552200D02*
X112748456Y-98504580D01*
X112748456Y-98504580D02*
X112796075Y-98409342D01*
X112796075Y-98409342D02*
X112796075Y-98123628D01*
X112796075Y-98123628D02*
X112748456Y-98028390D01*
X112748456Y-98028390D02*
X112700837Y-97980771D01*
X112700837Y-97980771D02*
X112605599Y-97933152D01*
X112605599Y-97933152D02*
X112415123Y-97933152D01*
X112415123Y-97933152D02*
X112319885Y-97980771D01*
X111891313Y-98599819D02*
X111891313Y-97599819D01*
X111796075Y-98218866D02*
X111510361Y-98599819D01*
X111510361Y-97933152D02*
X111891313Y-98314104D01*
X111081789Y-98218866D02*
X110319885Y-98218866D01*
X109843694Y-98599819D02*
X109843694Y-97599819D01*
X109415123Y-98599819D02*
X109415123Y-98076009D01*
X109415123Y-98076009D02*
X109462742Y-97980771D01*
X109462742Y-97980771D02*
X109557980Y-97933152D01*
X109557980Y-97933152D02*
X109700837Y-97933152D01*
X109700837Y-97933152D02*
X109796075Y-97980771D01*
X109796075Y-97980771D02*
X109843694Y-98028390D01*
X108510361Y-98599819D02*
X108510361Y-98076009D01*
X108510361Y-98076009D02*
X108557980Y-97980771D01*
X108557980Y-97980771D02*
X108653218Y-97933152D01*
X108653218Y-97933152D02*
X108843694Y-97933152D01*
X108843694Y-97933152D02*
X108938932Y-97980771D01*
X108510361Y-98552200D02*
X108605599Y-98599819D01*
X108605599Y-98599819D02*
X108843694Y-98599819D01*
X108843694Y-98599819D02*
X108938932Y-98552200D01*
X108938932Y-98552200D02*
X108986551Y-98456961D01*
X108986551Y-98456961D02*
X108986551Y-98361723D01*
X108986551Y-98361723D02*
X108938932Y-98266485D01*
X108938932Y-98266485D02*
X108843694Y-98218866D01*
X108843694Y-98218866D02*
X108605599Y-98218866D01*
X108605599Y-98218866D02*
X108510361Y-98171247D01*
X108177027Y-97933152D02*
X107796075Y-97933152D01*
X108034170Y-97599819D02*
X108034170Y-98456961D01*
X108034170Y-98456961D02*
X107986551Y-98552200D01*
X107986551Y-98552200D02*
X107891313Y-98599819D01*
X107891313Y-98599819D02*
X107796075Y-98599819D01*
D10*
X140065727Y-93362376D02*
X140125251Y-93421900D01*
X140125251Y-93421900D02*
X140303822Y-93481423D01*
X140303822Y-93481423D02*
X140422870Y-93481423D01*
X140422870Y-93481423D02*
X140601441Y-93421900D01*
X140601441Y-93421900D02*
X140720489Y-93302852D01*
X140720489Y-93302852D02*
X140780012Y-93183804D01*
X140780012Y-93183804D02*
X140839536Y-92945709D01*
X140839536Y-92945709D02*
X140839536Y-92767138D01*
X140839536Y-92767138D02*
X140780012Y-92529042D01*
X140780012Y-92529042D02*
X140720489Y-92409995D01*
X140720489Y-92409995D02*
X140601441Y-92290947D01*
X140601441Y-92290947D02*
X140422870Y-92231423D01*
X140422870Y-92231423D02*
X140303822Y-92231423D01*
X140303822Y-92231423D02*
X140125251Y-92290947D01*
X140125251Y-92290947D02*
X140065727Y-92350471D01*
X139291917Y-92231423D02*
X139053822Y-92231423D01*
X139053822Y-92231423D02*
X138934774Y-92290947D01*
X138934774Y-92290947D02*
X138815727Y-92409995D01*
X138815727Y-92409995D02*
X138756203Y-92648090D01*
X138756203Y-92648090D02*
X138756203Y-93064757D01*
X138756203Y-93064757D02*
X138815727Y-93302852D01*
X138815727Y-93302852D02*
X138934774Y-93421900D01*
X138934774Y-93421900D02*
X139053822Y-93481423D01*
X139053822Y-93481423D02*
X139291917Y-93481423D01*
X139291917Y-93481423D02*
X139410965Y-93421900D01*
X139410965Y-93421900D02*
X139530012Y-93302852D01*
X139530012Y-93302852D02*
X139589536Y-93064757D01*
X139589536Y-93064757D02*
X139589536Y-92648090D01*
X139589536Y-92648090D02*
X139530012Y-92409995D01*
X139530012Y-92409995D02*
X139410965Y-92290947D01*
X139410965Y-92290947D02*
X139291917Y-92231423D01*
X138220488Y-93481423D02*
X138220488Y-92231423D01*
X138220488Y-92231423D02*
X137803822Y-93124280D01*
X137803822Y-93124280D02*
X137387155Y-92231423D01*
X137387155Y-92231423D02*
X137387155Y-93481423D01*
X129905727Y-93481423D02*
X130322393Y-92886185D01*
X130620012Y-93481423D02*
X130620012Y-92231423D01*
X130620012Y-92231423D02*
X130143822Y-92231423D01*
X130143822Y-92231423D02*
X130024774Y-92290947D01*
X130024774Y-92290947D02*
X129965251Y-92350471D01*
X129965251Y-92350471D02*
X129905727Y-92469519D01*
X129905727Y-92469519D02*
X129905727Y-92648090D01*
X129905727Y-92648090D02*
X129965251Y-92767138D01*
X129965251Y-92767138D02*
X130024774Y-92826661D01*
X130024774Y-92826661D02*
X130143822Y-92886185D01*
X130143822Y-92886185D02*
X130620012Y-92886185D01*
X129370012Y-92231423D02*
X129370012Y-93243328D01*
X129370012Y-93243328D02*
X129310489Y-93362376D01*
X129310489Y-93362376D02*
X129250965Y-93421900D01*
X129250965Y-93421900D02*
X129131917Y-93481423D01*
X129131917Y-93481423D02*
X128893822Y-93481423D01*
X128893822Y-93481423D02*
X128774774Y-93421900D01*
X128774774Y-93421900D02*
X128715251Y-93362376D01*
X128715251Y-93362376D02*
X128655727Y-93243328D01*
X128655727Y-93243328D02*
X128655727Y-92231423D01*
X128060488Y-93481423D02*
X128060488Y-92231423D01*
X128060488Y-92231423D02*
X127346203Y-93481423D01*
X127346203Y-93481423D02*
X127346203Y-92231423D01*
D11*
X105054819Y-47116666D02*
X105769104Y-47116666D01*
X105769104Y-47116666D02*
X105911961Y-47069047D01*
X105911961Y-47069047D02*
X106007200Y-46973809D01*
X106007200Y-46973809D02*
X106054819Y-46830952D01*
X106054819Y-46830952D02*
X106054819Y-46735714D01*
X105054819Y-47497619D02*
X105054819Y-48116666D01*
X105054819Y-48116666D02*
X105435771Y-47783333D01*
X105435771Y-47783333D02*
X105435771Y-47926190D01*
X105435771Y-47926190D02*
X105483390Y-48021428D01*
X105483390Y-48021428D02*
X105531009Y-48069047D01*
X105531009Y-48069047D02*
X105626247Y-48116666D01*
X105626247Y-48116666D02*
X105864342Y-48116666D01*
X105864342Y-48116666D02*
X105959580Y-48069047D01*
X105959580Y-48069047D02*
X106007200Y-48021428D01*
X106007200Y-48021428D02*
X106054819Y-47926190D01*
X106054819Y-47926190D02*
X106054819Y-47640476D01*
X106054819Y-47640476D02*
X106007200Y-47545238D01*
X106007200Y-47545238D02*
X105959580Y-47497619D01*
X159873333Y-63789819D02*
X159873333Y-64504104D01*
X159873333Y-64504104D02*
X159920952Y-64646961D01*
X159920952Y-64646961D02*
X160016190Y-64742200D01*
X160016190Y-64742200D02*
X160159047Y-64789819D01*
X160159047Y-64789819D02*
X160254285Y-64789819D01*
X159397142Y-64789819D02*
X159397142Y-63789819D01*
X159397142Y-63789819D02*
X159016190Y-63789819D01*
X159016190Y-63789819D02*
X158920952Y-63837438D01*
X158920952Y-63837438D02*
X158873333Y-63885057D01*
X158873333Y-63885057D02*
X158825714Y-63980295D01*
X158825714Y-63980295D02*
X158825714Y-64123152D01*
X158825714Y-64123152D02*
X158873333Y-64218390D01*
X158873333Y-64218390D02*
X158920952Y-64266009D01*
X158920952Y-64266009D02*
X159016190Y-64313628D01*
X159016190Y-64313628D02*
X159397142Y-64313628D01*
X158444761Y-63885057D02*
X158397142Y-63837438D01*
X158397142Y-63837438D02*
X158301904Y-63789819D01*
X158301904Y-63789819D02*
X158063809Y-63789819D01*
X158063809Y-63789819D02*
X157968571Y-63837438D01*
X157968571Y-63837438D02*
X157920952Y-63885057D01*
X157920952Y-63885057D02*
X157873333Y-63980295D01*
X157873333Y-63980295D02*
X157873333Y-64075533D01*
X157873333Y-64075533D02*
X157920952Y-64218390D01*
X157920952Y-64218390D02*
X158492380Y-64789819D01*
X158492380Y-64789819D02*
X157873333Y-64789819D01*
D12*
X107040000Y-47450000D02*
X107040000Y-44850000D01*
X107040000Y-50050000D02*
X107040000Y-48720000D01*
X108370000Y-50050000D02*
X107040000Y-50050000D01*
X109640000Y-47450000D02*
X107040000Y-47450000D01*
X109640000Y-50050000D02*
X109640000Y-47450000D01*
X157960000Y-44850000D02*
X107040000Y-44850000D01*
X157960000Y-50050000D02*
X109640000Y-50050000D01*
X157960000Y-50050000D02*
X157960000Y-44850000D01*
X157020000Y-61535000D02*
X159820000Y-61535000D01*
X157020000Y-63535000D02*
X157020000Y-61535000D01*
X159820000Y-61535000D02*
X159820000Y-63535000D01*
X159820000Y-63535000D02*
X157020000Y-63535000D01*
M02*
