G04 #@! TF.GenerationSoftware,KiCad,Pcbnew,7.0.10*
G04 #@! TF.CreationDate,2024-02-03T15:41:00-08:00*
G04 #@! TF.ProjectId,rpi-simplex-clock-hat,7270692d-7369-46d7-906c-65782d636c6f,0*
G04 #@! TF.SameCoordinates,Original*
G04 #@! TF.FileFunction,Legend,Top*
G04 #@! TF.FilePolarity,Positive*
%FSLAX46Y46*%
G04 Gerber Fmt 4.6, Leading zero omitted, Abs format (unit mm)*
G04 Created by KiCad (PCBNEW 7.0.10) date 2024-02-03 15:41:00*
%MOMM*%
%LPD*%
G01*
G04 APERTURE LIST*
%ADD10C,0.150000*%
%ADD11C,0.300000*%
%ADD12C,0.120000*%
%ADD13C,0.127000*%
%ADD14C,0.200000*%
G04 APERTURE END LIST*
D10*
X151019104Y-71770839D02*
X151019104Y-71294649D01*
X151304819Y-71866077D02*
X150304819Y-71532744D01*
X150304819Y-71532744D02*
X151304819Y-71199411D01*
X150304819Y-71008934D02*
X150304819Y-70437506D01*
X151304819Y-70723220D02*
X150304819Y-70723220D01*
X150400057Y-70151791D02*
X150352438Y-70104172D01*
X150352438Y-70104172D02*
X150304819Y-70008934D01*
X150304819Y-70008934D02*
X150304819Y-69770839D01*
X150304819Y-69770839D02*
X150352438Y-69675601D01*
X150352438Y-69675601D02*
X150400057Y-69627982D01*
X150400057Y-69627982D02*
X150495295Y-69580363D01*
X150495295Y-69580363D02*
X150590533Y-69580363D01*
X150590533Y-69580363D02*
X150733390Y-69627982D01*
X150733390Y-69627982D02*
X151304819Y-70199410D01*
X151304819Y-70199410D02*
X151304819Y-69580363D01*
X150638152Y-68723220D02*
X151304819Y-68723220D01*
X150257200Y-68961315D02*
X150971485Y-69199410D01*
X150971485Y-69199410D02*
X150971485Y-68580363D01*
X151209580Y-67627982D02*
X151257200Y-67675601D01*
X151257200Y-67675601D02*
X151304819Y-67818458D01*
X151304819Y-67818458D02*
X151304819Y-67913696D01*
X151304819Y-67913696D02*
X151257200Y-68056553D01*
X151257200Y-68056553D02*
X151161961Y-68151791D01*
X151161961Y-68151791D02*
X151066723Y-68199410D01*
X151066723Y-68199410D02*
X150876247Y-68247029D01*
X150876247Y-68247029D02*
X150733390Y-68247029D01*
X150733390Y-68247029D02*
X150542914Y-68199410D01*
X150542914Y-68199410D02*
X150447676Y-68151791D01*
X150447676Y-68151791D02*
X150352438Y-68056553D01*
X150352438Y-68056553D02*
X150304819Y-67913696D01*
X150304819Y-67913696D02*
X150304819Y-67818458D01*
X150304819Y-67818458D02*
X150352438Y-67675601D01*
X150352438Y-67675601D02*
X150400057Y-67627982D01*
X150400057Y-67247029D02*
X150352438Y-67199410D01*
X150352438Y-67199410D02*
X150304819Y-67104172D01*
X150304819Y-67104172D02*
X150304819Y-66866077D01*
X150304819Y-66866077D02*
X150352438Y-66770839D01*
X150352438Y-66770839D02*
X150400057Y-66723220D01*
X150400057Y-66723220D02*
X150495295Y-66675601D01*
X150495295Y-66675601D02*
X150590533Y-66675601D01*
X150590533Y-66675601D02*
X150733390Y-66723220D01*
X150733390Y-66723220D02*
X151304819Y-67294648D01*
X151304819Y-67294648D02*
X151304819Y-66675601D01*
X150304819Y-65770839D02*
X150304819Y-66247029D01*
X150304819Y-66247029D02*
X150781009Y-66294648D01*
X150781009Y-66294648D02*
X150733390Y-66247029D01*
X150733390Y-66247029D02*
X150685771Y-66151791D01*
X150685771Y-66151791D02*
X150685771Y-65913696D01*
X150685771Y-65913696D02*
X150733390Y-65818458D01*
X150733390Y-65818458D02*
X150781009Y-65770839D01*
X150781009Y-65770839D02*
X150876247Y-65723220D01*
X150876247Y-65723220D02*
X151114342Y-65723220D01*
X151114342Y-65723220D02*
X151209580Y-65770839D01*
X151209580Y-65770839D02*
X151257200Y-65818458D01*
X151257200Y-65818458D02*
X151304819Y-65913696D01*
X151304819Y-65913696D02*
X151304819Y-66151791D01*
X151304819Y-66151791D02*
X151257200Y-66247029D01*
X151257200Y-66247029D02*
X151209580Y-66294648D01*
X150304819Y-64866077D02*
X150304819Y-65056553D01*
X150304819Y-65056553D02*
X150352438Y-65151791D01*
X150352438Y-65151791D02*
X150400057Y-65199410D01*
X150400057Y-65199410D02*
X150542914Y-65294648D01*
X150542914Y-65294648D02*
X150733390Y-65342267D01*
X150733390Y-65342267D02*
X151114342Y-65342267D01*
X151114342Y-65342267D02*
X151209580Y-65294648D01*
X151209580Y-65294648D02*
X151257200Y-65247029D01*
X151257200Y-65247029D02*
X151304819Y-65151791D01*
X151304819Y-65151791D02*
X151304819Y-64961315D01*
X151304819Y-64961315D02*
X151257200Y-64866077D01*
X151257200Y-64866077D02*
X151209580Y-64818458D01*
X151209580Y-64818458D02*
X151114342Y-64770839D01*
X151114342Y-64770839D02*
X150876247Y-64770839D01*
X150876247Y-64770839D02*
X150781009Y-64818458D01*
X150781009Y-64818458D02*
X150733390Y-64866077D01*
X150733390Y-64866077D02*
X150685771Y-64961315D01*
X150685771Y-64961315D02*
X150685771Y-65151791D01*
X150685771Y-65151791D02*
X150733390Y-65247029D01*
X150733390Y-65247029D02*
X150781009Y-65294648D01*
X150781009Y-65294648D02*
X150876247Y-65342267D01*
D11*
X128081653Y-85830828D02*
X127581653Y-85116542D01*
X127224510Y-85830828D02*
X127224510Y-84330828D01*
X127224510Y-84330828D02*
X127795939Y-84330828D01*
X127795939Y-84330828D02*
X127938796Y-84402257D01*
X127938796Y-84402257D02*
X128010225Y-84473685D01*
X128010225Y-84473685D02*
X128081653Y-84616542D01*
X128081653Y-84616542D02*
X128081653Y-84830828D01*
X128081653Y-84830828D02*
X128010225Y-84973685D01*
X128010225Y-84973685D02*
X127938796Y-85045114D01*
X127938796Y-85045114D02*
X127795939Y-85116542D01*
X127795939Y-85116542D02*
X127224510Y-85116542D01*
X128724510Y-84330828D02*
X128724510Y-85545114D01*
X128724510Y-85545114D02*
X128795939Y-85687971D01*
X128795939Y-85687971D02*
X128867368Y-85759400D01*
X128867368Y-85759400D02*
X129010225Y-85830828D01*
X129010225Y-85830828D02*
X129295939Y-85830828D01*
X129295939Y-85830828D02*
X129438796Y-85759400D01*
X129438796Y-85759400D02*
X129510225Y-85687971D01*
X129510225Y-85687971D02*
X129581653Y-85545114D01*
X129581653Y-85545114D02*
X129581653Y-84330828D01*
X130295939Y-85830828D02*
X130295939Y-84330828D01*
X130295939Y-84330828D02*
X131153082Y-85830828D01*
X131153082Y-85830828D02*
X131153082Y-84330828D01*
X139853082Y-84473685D02*
X139924510Y-84402257D01*
X139924510Y-84402257D02*
X140067368Y-84330828D01*
X140067368Y-84330828D02*
X140424510Y-84330828D01*
X140424510Y-84330828D02*
X140567368Y-84402257D01*
X140567368Y-84402257D02*
X140638796Y-84473685D01*
X140638796Y-84473685D02*
X140710225Y-84616542D01*
X140710225Y-84616542D02*
X140710225Y-84759400D01*
X140710225Y-84759400D02*
X140638796Y-84973685D01*
X140638796Y-84973685D02*
X139781653Y-85830828D01*
X139781653Y-85830828D02*
X140710225Y-85830828D01*
X141995939Y-84830828D02*
X141995939Y-85830828D01*
X141638796Y-84259400D02*
X141281653Y-85330828D01*
X141281653Y-85330828D02*
X142210224Y-85330828D01*
X142567367Y-84330828D02*
X143067367Y-85830828D01*
X143067367Y-85830828D02*
X143567367Y-84330828D01*
X143995938Y-85402257D02*
X144710224Y-85402257D01*
X143853081Y-85830828D02*
X144353081Y-84330828D01*
X144353081Y-84330828D02*
X144853081Y-85830828D01*
X146210223Y-85687971D02*
X146138795Y-85759400D01*
X146138795Y-85759400D02*
X145924509Y-85830828D01*
X145924509Y-85830828D02*
X145781652Y-85830828D01*
X145781652Y-85830828D02*
X145567366Y-85759400D01*
X145567366Y-85759400D02*
X145424509Y-85616542D01*
X145424509Y-85616542D02*
X145353080Y-85473685D01*
X145353080Y-85473685D02*
X145281652Y-85187971D01*
X145281652Y-85187971D02*
X145281652Y-84973685D01*
X145281652Y-84973685D02*
X145353080Y-84687971D01*
X145353080Y-84687971D02*
X145424509Y-84545114D01*
X145424509Y-84545114D02*
X145567366Y-84402257D01*
X145567366Y-84402257D02*
X145781652Y-84330828D01*
X145781652Y-84330828D02*
X145924509Y-84330828D01*
X145924509Y-84330828D02*
X146138795Y-84402257D01*
X146138795Y-84402257D02*
X146210223Y-84473685D01*
X132868082Y-85759400D02*
X133082368Y-85830828D01*
X133082368Y-85830828D02*
X133439510Y-85830828D01*
X133439510Y-85830828D02*
X133582368Y-85759400D01*
X133582368Y-85759400D02*
X133653796Y-85687971D01*
X133653796Y-85687971D02*
X133725225Y-85545114D01*
X133725225Y-85545114D02*
X133725225Y-85402257D01*
X133725225Y-85402257D02*
X133653796Y-85259400D01*
X133653796Y-85259400D02*
X133582368Y-85187971D01*
X133582368Y-85187971D02*
X133439510Y-85116542D01*
X133439510Y-85116542D02*
X133153796Y-85045114D01*
X133153796Y-85045114D02*
X133010939Y-84973685D01*
X133010939Y-84973685D02*
X132939510Y-84902257D01*
X132939510Y-84902257D02*
X132868082Y-84759400D01*
X132868082Y-84759400D02*
X132868082Y-84616542D01*
X132868082Y-84616542D02*
X132939510Y-84473685D01*
X132939510Y-84473685D02*
X133010939Y-84402257D01*
X133010939Y-84402257D02*
X133153796Y-84330828D01*
X133153796Y-84330828D02*
X133510939Y-84330828D01*
X133510939Y-84330828D02*
X133725225Y-84402257D01*
X134653796Y-85116542D02*
X134653796Y-85830828D01*
X134153796Y-84330828D02*
X134653796Y-85116542D01*
X134653796Y-85116542D02*
X135153796Y-84330828D01*
X135653795Y-85830828D02*
X135653795Y-84330828D01*
X135653795Y-84330828D02*
X136510938Y-85830828D01*
X136510938Y-85830828D02*
X136510938Y-84330828D01*
X138082367Y-85687971D02*
X138010939Y-85759400D01*
X138010939Y-85759400D02*
X137796653Y-85830828D01*
X137796653Y-85830828D02*
X137653796Y-85830828D01*
X137653796Y-85830828D02*
X137439510Y-85759400D01*
X137439510Y-85759400D02*
X137296653Y-85616542D01*
X137296653Y-85616542D02*
X137225224Y-85473685D01*
X137225224Y-85473685D02*
X137153796Y-85187971D01*
X137153796Y-85187971D02*
X137153796Y-84973685D01*
X137153796Y-84973685D02*
X137225224Y-84687971D01*
X137225224Y-84687971D02*
X137296653Y-84545114D01*
X137296653Y-84545114D02*
X137439510Y-84402257D01*
X137439510Y-84402257D02*
X137653796Y-84330828D01*
X137653796Y-84330828D02*
X137796653Y-84330828D01*
X137796653Y-84330828D02*
X138010939Y-84402257D01*
X138010939Y-84402257D02*
X138082367Y-84473685D01*
D10*
X121645714Y-93899819D02*
X121645714Y-92899819D01*
X121645714Y-92899819D02*
X122026666Y-92899819D01*
X122026666Y-92899819D02*
X122121904Y-92947438D01*
X122121904Y-92947438D02*
X122169523Y-92995057D01*
X122169523Y-92995057D02*
X122217142Y-93090295D01*
X122217142Y-93090295D02*
X122217142Y-93233152D01*
X122217142Y-93233152D02*
X122169523Y-93328390D01*
X122169523Y-93328390D02*
X122121904Y-93376009D01*
X122121904Y-93376009D02*
X122026666Y-93423628D01*
X122026666Y-93423628D02*
X121645714Y-93423628D01*
X122598095Y-93852200D02*
X122740952Y-93899819D01*
X122740952Y-93899819D02*
X122979047Y-93899819D01*
X122979047Y-93899819D02*
X123074285Y-93852200D01*
X123074285Y-93852200D02*
X123121904Y-93804580D01*
X123121904Y-93804580D02*
X123169523Y-93709342D01*
X123169523Y-93709342D02*
X123169523Y-93614104D01*
X123169523Y-93614104D02*
X123121904Y-93518866D01*
X123121904Y-93518866D02*
X123074285Y-93471247D01*
X123074285Y-93471247D02*
X122979047Y-93423628D01*
X122979047Y-93423628D02*
X122788571Y-93376009D01*
X122788571Y-93376009D02*
X122693333Y-93328390D01*
X122693333Y-93328390D02*
X122645714Y-93280771D01*
X122645714Y-93280771D02*
X122598095Y-93185533D01*
X122598095Y-93185533D02*
X122598095Y-93090295D01*
X122598095Y-93090295D02*
X122645714Y-92995057D01*
X122645714Y-92995057D02*
X122693333Y-92947438D01*
X122693333Y-92947438D02*
X122788571Y-92899819D01*
X122788571Y-92899819D02*
X123026666Y-92899819D01*
X123026666Y-92899819D02*
X123169523Y-92947438D01*
X124121904Y-93899819D02*
X123550476Y-93899819D01*
X123836190Y-93899819D02*
X123836190Y-92899819D01*
X123836190Y-92899819D02*
X123740952Y-93042676D01*
X123740952Y-93042676D02*
X123645714Y-93137914D01*
X123645714Y-93137914D02*
X123550476Y-93185533D01*
X143983333Y-82094866D02*
X143983333Y-83094866D01*
X143983333Y-83094866D02*
X143916666Y-83294866D01*
X143916666Y-83294866D02*
X143783333Y-83428200D01*
X143783333Y-83428200D02*
X143583333Y-83494866D01*
X143583333Y-83494866D02*
X143450000Y-83494866D01*
X145383333Y-83494866D02*
X144583333Y-83494866D01*
X144983333Y-83494866D02*
X144983333Y-82094866D01*
X144983333Y-82094866D02*
X144850000Y-82294866D01*
X144850000Y-82294866D02*
X144716667Y-82428200D01*
X144716667Y-82428200D02*
X144583333Y-82494866D01*
X103008333Y-72419580D02*
X102960714Y-72467200D01*
X102960714Y-72467200D02*
X102817857Y-72514819D01*
X102817857Y-72514819D02*
X102722619Y-72514819D01*
X102722619Y-72514819D02*
X102579762Y-72467200D01*
X102579762Y-72467200D02*
X102484524Y-72371961D01*
X102484524Y-72371961D02*
X102436905Y-72276723D01*
X102436905Y-72276723D02*
X102389286Y-72086247D01*
X102389286Y-72086247D02*
X102389286Y-71943390D01*
X102389286Y-71943390D02*
X102436905Y-71752914D01*
X102436905Y-71752914D02*
X102484524Y-71657676D01*
X102484524Y-71657676D02*
X102579762Y-71562438D01*
X102579762Y-71562438D02*
X102722619Y-71514819D01*
X102722619Y-71514819D02*
X102817857Y-71514819D01*
X102817857Y-71514819D02*
X102960714Y-71562438D01*
X102960714Y-71562438D02*
X103008333Y-71610057D01*
X103389286Y-71610057D02*
X103436905Y-71562438D01*
X103436905Y-71562438D02*
X103532143Y-71514819D01*
X103532143Y-71514819D02*
X103770238Y-71514819D01*
X103770238Y-71514819D02*
X103865476Y-71562438D01*
X103865476Y-71562438D02*
X103913095Y-71610057D01*
X103913095Y-71610057D02*
X103960714Y-71705295D01*
X103960714Y-71705295D02*
X103960714Y-71800533D01*
X103960714Y-71800533D02*
X103913095Y-71943390D01*
X103913095Y-71943390D02*
X103341667Y-72514819D01*
X103341667Y-72514819D02*
X103960714Y-72514819D01*
X114438333Y-77499580D02*
X114390714Y-77547200D01*
X114390714Y-77547200D02*
X114247857Y-77594819D01*
X114247857Y-77594819D02*
X114152619Y-77594819D01*
X114152619Y-77594819D02*
X114009762Y-77547200D01*
X114009762Y-77547200D02*
X113914524Y-77451961D01*
X113914524Y-77451961D02*
X113866905Y-77356723D01*
X113866905Y-77356723D02*
X113819286Y-77166247D01*
X113819286Y-77166247D02*
X113819286Y-77023390D01*
X113819286Y-77023390D02*
X113866905Y-76832914D01*
X113866905Y-76832914D02*
X113914524Y-76737676D01*
X113914524Y-76737676D02*
X114009762Y-76642438D01*
X114009762Y-76642438D02*
X114152619Y-76594819D01*
X114152619Y-76594819D02*
X114247857Y-76594819D01*
X114247857Y-76594819D02*
X114390714Y-76642438D01*
X114390714Y-76642438D02*
X114438333Y-76690057D01*
X114771667Y-76594819D02*
X115390714Y-76594819D01*
X115390714Y-76594819D02*
X115057381Y-76975771D01*
X115057381Y-76975771D02*
X115200238Y-76975771D01*
X115200238Y-76975771D02*
X115295476Y-77023390D01*
X115295476Y-77023390D02*
X115343095Y-77071009D01*
X115343095Y-77071009D02*
X115390714Y-77166247D01*
X115390714Y-77166247D02*
X115390714Y-77404342D01*
X115390714Y-77404342D02*
X115343095Y-77499580D01*
X115343095Y-77499580D02*
X115295476Y-77547200D01*
X115295476Y-77547200D02*
X115200238Y-77594819D01*
X115200238Y-77594819D02*
X114914524Y-77594819D01*
X114914524Y-77594819D02*
X114819286Y-77547200D01*
X114819286Y-77547200D02*
X114771667Y-77499580D01*
X106818333Y-54599580D02*
X106770714Y-54647200D01*
X106770714Y-54647200D02*
X106627857Y-54694819D01*
X106627857Y-54694819D02*
X106532619Y-54694819D01*
X106532619Y-54694819D02*
X106389762Y-54647200D01*
X106389762Y-54647200D02*
X106294524Y-54551961D01*
X106294524Y-54551961D02*
X106246905Y-54456723D01*
X106246905Y-54456723D02*
X106199286Y-54266247D01*
X106199286Y-54266247D02*
X106199286Y-54123390D01*
X106199286Y-54123390D02*
X106246905Y-53932914D01*
X106246905Y-53932914D02*
X106294524Y-53837676D01*
X106294524Y-53837676D02*
X106389762Y-53742438D01*
X106389762Y-53742438D02*
X106532619Y-53694819D01*
X106532619Y-53694819D02*
X106627857Y-53694819D01*
X106627857Y-53694819D02*
X106770714Y-53742438D01*
X106770714Y-53742438D02*
X106818333Y-53790057D01*
X107675476Y-54028152D02*
X107675476Y-54694819D01*
X107437381Y-53647200D02*
X107199286Y-54361485D01*
X107199286Y-54361485D02*
X107818333Y-54361485D01*
X117018095Y-67704819D02*
X117018095Y-68514342D01*
X117018095Y-68514342D02*
X117065714Y-68609580D01*
X117065714Y-68609580D02*
X117113333Y-68657200D01*
X117113333Y-68657200D02*
X117208571Y-68704819D01*
X117208571Y-68704819D02*
X117399047Y-68704819D01*
X117399047Y-68704819D02*
X117494285Y-68657200D01*
X117494285Y-68657200D02*
X117541904Y-68609580D01*
X117541904Y-68609580D02*
X117589523Y-68514342D01*
X117589523Y-68514342D02*
X117589523Y-67704819D01*
X118589523Y-68704819D02*
X118018095Y-68704819D01*
X118303809Y-68704819D02*
X118303809Y-67704819D01*
X118303809Y-67704819D02*
X118208571Y-67847676D01*
X118208571Y-67847676D02*
X118113333Y-67942914D01*
X118113333Y-67942914D02*
X118018095Y-67990533D01*
X137766666Y-76256009D02*
X137433333Y-76256009D01*
X137433333Y-76779819D02*
X137433333Y-75779819D01*
X137433333Y-75779819D02*
X137909523Y-75779819D01*
X138814285Y-76779819D02*
X138242857Y-76779819D01*
X138528571Y-76779819D02*
X138528571Y-75779819D01*
X138528571Y-75779819D02*
X138433333Y-75922676D01*
X138433333Y-75922676D02*
X138338095Y-76017914D01*
X138338095Y-76017914D02*
X138242857Y-76065533D01*
X102341666Y-53099819D02*
X102341666Y-53814104D01*
X102341666Y-53814104D02*
X102294047Y-53956961D01*
X102294047Y-53956961D02*
X102198809Y-54052200D01*
X102198809Y-54052200D02*
X102055952Y-54099819D01*
X102055952Y-54099819D02*
X101960714Y-54099819D01*
X102817857Y-54099819D02*
X102817857Y-53099819D01*
X102817857Y-53099819D02*
X103198809Y-53099819D01*
X103198809Y-53099819D02*
X103294047Y-53147438D01*
X103294047Y-53147438D02*
X103341666Y-53195057D01*
X103341666Y-53195057D02*
X103389285Y-53290295D01*
X103389285Y-53290295D02*
X103389285Y-53433152D01*
X103389285Y-53433152D02*
X103341666Y-53528390D01*
X103341666Y-53528390D02*
X103294047Y-53576009D01*
X103294047Y-53576009D02*
X103198809Y-53623628D01*
X103198809Y-53623628D02*
X102817857Y-53623628D01*
X104341666Y-54099819D02*
X103770238Y-54099819D01*
X104055952Y-54099819D02*
X104055952Y-53099819D01*
X104055952Y-53099819D02*
X103960714Y-53242676D01*
X103960714Y-53242676D02*
X103865476Y-53337914D01*
X103865476Y-53337914D02*
X103770238Y-53385533D01*
X156348333Y-51559819D02*
X156015000Y-51083628D01*
X155776905Y-51559819D02*
X155776905Y-50559819D01*
X155776905Y-50559819D02*
X156157857Y-50559819D01*
X156157857Y-50559819D02*
X156253095Y-50607438D01*
X156253095Y-50607438D02*
X156300714Y-50655057D01*
X156300714Y-50655057D02*
X156348333Y-50750295D01*
X156348333Y-50750295D02*
X156348333Y-50893152D01*
X156348333Y-50893152D02*
X156300714Y-50988390D01*
X156300714Y-50988390D02*
X156253095Y-51036009D01*
X156253095Y-51036009D02*
X156157857Y-51083628D01*
X156157857Y-51083628D02*
X155776905Y-51083628D01*
X157205476Y-50893152D02*
X157205476Y-51559819D01*
X156967381Y-50512200D02*
X156729286Y-51226485D01*
X156729286Y-51226485D02*
X157348333Y-51226485D01*
X154506905Y-78864819D02*
X154506905Y-77864819D01*
X154506905Y-77864819D02*
X154745000Y-77864819D01*
X154745000Y-77864819D02*
X154887857Y-77912438D01*
X154887857Y-77912438D02*
X154983095Y-78007676D01*
X154983095Y-78007676D02*
X155030714Y-78102914D01*
X155030714Y-78102914D02*
X155078333Y-78293390D01*
X155078333Y-78293390D02*
X155078333Y-78436247D01*
X155078333Y-78436247D02*
X155030714Y-78626723D01*
X155030714Y-78626723D02*
X154983095Y-78721961D01*
X154983095Y-78721961D02*
X154887857Y-78817200D01*
X154887857Y-78817200D02*
X154745000Y-78864819D01*
X154745000Y-78864819D02*
X154506905Y-78864819D01*
X156030714Y-78864819D02*
X155459286Y-78864819D01*
X155745000Y-78864819D02*
X155745000Y-77864819D01*
X155745000Y-77864819D02*
X155649762Y-78007676D01*
X155649762Y-78007676D02*
X155554524Y-78102914D01*
X155554524Y-78102914D02*
X155459286Y-78150533D01*
X115073333Y-51559819D02*
X114740000Y-51083628D01*
X114501905Y-51559819D02*
X114501905Y-50559819D01*
X114501905Y-50559819D02*
X114882857Y-50559819D01*
X114882857Y-50559819D02*
X114978095Y-50607438D01*
X114978095Y-50607438D02*
X115025714Y-50655057D01*
X115025714Y-50655057D02*
X115073333Y-50750295D01*
X115073333Y-50750295D02*
X115073333Y-50893152D01*
X115073333Y-50893152D02*
X115025714Y-50988390D01*
X115025714Y-50988390D02*
X114978095Y-51036009D01*
X114978095Y-51036009D02*
X114882857Y-51083628D01*
X114882857Y-51083628D02*
X114501905Y-51083628D01*
X115454286Y-50655057D02*
X115501905Y-50607438D01*
X115501905Y-50607438D02*
X115597143Y-50559819D01*
X115597143Y-50559819D02*
X115835238Y-50559819D01*
X115835238Y-50559819D02*
X115930476Y-50607438D01*
X115930476Y-50607438D02*
X115978095Y-50655057D01*
X115978095Y-50655057D02*
X116025714Y-50750295D01*
X116025714Y-50750295D02*
X116025714Y-50845533D01*
X116025714Y-50845533D02*
X115978095Y-50988390D01*
X115978095Y-50988390D02*
X115406667Y-51559819D01*
X115406667Y-51559819D02*
X116025714Y-51559819D01*
X160793333Y-59084580D02*
X160745714Y-59132200D01*
X160745714Y-59132200D02*
X160602857Y-59179819D01*
X160602857Y-59179819D02*
X160507619Y-59179819D01*
X160507619Y-59179819D02*
X160364762Y-59132200D01*
X160364762Y-59132200D02*
X160269524Y-59036961D01*
X160269524Y-59036961D02*
X160221905Y-58941723D01*
X160221905Y-58941723D02*
X160174286Y-58751247D01*
X160174286Y-58751247D02*
X160174286Y-58608390D01*
X160174286Y-58608390D02*
X160221905Y-58417914D01*
X160221905Y-58417914D02*
X160269524Y-58322676D01*
X160269524Y-58322676D02*
X160364762Y-58227438D01*
X160364762Y-58227438D02*
X160507619Y-58179819D01*
X160507619Y-58179819D02*
X160602857Y-58179819D01*
X160602857Y-58179819D02*
X160745714Y-58227438D01*
X160745714Y-58227438D02*
X160793333Y-58275057D01*
X161698095Y-58179819D02*
X161221905Y-58179819D01*
X161221905Y-58179819D02*
X161174286Y-58656009D01*
X161174286Y-58656009D02*
X161221905Y-58608390D01*
X161221905Y-58608390D02*
X161317143Y-58560771D01*
X161317143Y-58560771D02*
X161555238Y-58560771D01*
X161555238Y-58560771D02*
X161650476Y-58608390D01*
X161650476Y-58608390D02*
X161698095Y-58656009D01*
X161698095Y-58656009D02*
X161745714Y-58751247D01*
X161745714Y-58751247D02*
X161745714Y-58989342D01*
X161745714Y-58989342D02*
X161698095Y-59084580D01*
X161698095Y-59084580D02*
X161650476Y-59132200D01*
X161650476Y-59132200D02*
X161555238Y-59179819D01*
X161555238Y-59179819D02*
X161317143Y-59179819D01*
X161317143Y-59179819D02*
X161221905Y-59132200D01*
X161221905Y-59132200D02*
X161174286Y-59084580D01*
X162518095Y-67704819D02*
X162518095Y-68514342D01*
X162518095Y-68514342D02*
X162565714Y-68609580D01*
X162565714Y-68609580D02*
X162613333Y-68657200D01*
X162613333Y-68657200D02*
X162708571Y-68704819D01*
X162708571Y-68704819D02*
X162899047Y-68704819D01*
X162899047Y-68704819D02*
X162994285Y-68657200D01*
X162994285Y-68657200D02*
X163041904Y-68609580D01*
X163041904Y-68609580D02*
X163089523Y-68514342D01*
X163089523Y-68514342D02*
X163089523Y-67704819D01*
X163518095Y-67800057D02*
X163565714Y-67752438D01*
X163565714Y-67752438D02*
X163660952Y-67704819D01*
X163660952Y-67704819D02*
X163899047Y-67704819D01*
X163899047Y-67704819D02*
X163994285Y-67752438D01*
X163994285Y-67752438D02*
X164041904Y-67800057D01*
X164041904Y-67800057D02*
X164089523Y-67895295D01*
X164089523Y-67895295D02*
X164089523Y-67990533D01*
X164089523Y-67990533D02*
X164041904Y-68133390D01*
X164041904Y-68133390D02*
X163470476Y-68704819D01*
X163470476Y-68704819D02*
X164089523Y-68704819D01*
X152538333Y-51559819D02*
X152205000Y-51083628D01*
X151966905Y-51559819D02*
X151966905Y-50559819D01*
X151966905Y-50559819D02*
X152347857Y-50559819D01*
X152347857Y-50559819D02*
X152443095Y-50607438D01*
X152443095Y-50607438D02*
X152490714Y-50655057D01*
X152490714Y-50655057D02*
X152538333Y-50750295D01*
X152538333Y-50750295D02*
X152538333Y-50893152D01*
X152538333Y-50893152D02*
X152490714Y-50988390D01*
X152490714Y-50988390D02*
X152443095Y-51036009D01*
X152443095Y-51036009D02*
X152347857Y-51083628D01*
X152347857Y-51083628D02*
X151966905Y-51083628D01*
X152871667Y-50559819D02*
X153490714Y-50559819D01*
X153490714Y-50559819D02*
X153157381Y-50940771D01*
X153157381Y-50940771D02*
X153300238Y-50940771D01*
X153300238Y-50940771D02*
X153395476Y-50988390D01*
X153395476Y-50988390D02*
X153443095Y-51036009D01*
X153443095Y-51036009D02*
X153490714Y-51131247D01*
X153490714Y-51131247D02*
X153490714Y-51369342D01*
X153490714Y-51369342D02*
X153443095Y-51464580D01*
X153443095Y-51464580D02*
X153395476Y-51512200D01*
X153395476Y-51512200D02*
X153300238Y-51559819D01*
X153300238Y-51559819D02*
X153014524Y-51559819D01*
X153014524Y-51559819D02*
X152919286Y-51512200D01*
X152919286Y-51512200D02*
X152871667Y-51464580D01*
X109993333Y-51559819D02*
X109660000Y-51083628D01*
X109421905Y-51559819D02*
X109421905Y-50559819D01*
X109421905Y-50559819D02*
X109802857Y-50559819D01*
X109802857Y-50559819D02*
X109898095Y-50607438D01*
X109898095Y-50607438D02*
X109945714Y-50655057D01*
X109945714Y-50655057D02*
X109993333Y-50750295D01*
X109993333Y-50750295D02*
X109993333Y-50893152D01*
X109993333Y-50893152D02*
X109945714Y-50988390D01*
X109945714Y-50988390D02*
X109898095Y-51036009D01*
X109898095Y-51036009D02*
X109802857Y-51083628D01*
X109802857Y-51083628D02*
X109421905Y-51083628D01*
X110945714Y-51559819D02*
X110374286Y-51559819D01*
X110660000Y-51559819D02*
X110660000Y-50559819D01*
X110660000Y-50559819D02*
X110564762Y-50702676D01*
X110564762Y-50702676D02*
X110469524Y-50797914D01*
X110469524Y-50797914D02*
X110374286Y-50845533D01*
X149196666Y-82944819D02*
X149196666Y-83659104D01*
X149196666Y-83659104D02*
X149149047Y-83801961D01*
X149149047Y-83801961D02*
X149053809Y-83897200D01*
X149053809Y-83897200D02*
X148910952Y-83944819D01*
X148910952Y-83944819D02*
X148815714Y-83944819D01*
X149625238Y-83040057D02*
X149672857Y-82992438D01*
X149672857Y-82992438D02*
X149768095Y-82944819D01*
X149768095Y-82944819D02*
X150006190Y-82944819D01*
X150006190Y-82944819D02*
X150101428Y-82992438D01*
X150101428Y-82992438D02*
X150149047Y-83040057D01*
X150149047Y-83040057D02*
X150196666Y-83135295D01*
X150196666Y-83135295D02*
X150196666Y-83230533D01*
X150196666Y-83230533D02*
X150149047Y-83373390D01*
X150149047Y-83373390D02*
X149577619Y-83944819D01*
X149577619Y-83944819D02*
X150196666Y-83944819D01*
X102373333Y-78769580D02*
X102325714Y-78817200D01*
X102325714Y-78817200D02*
X102182857Y-78864819D01*
X102182857Y-78864819D02*
X102087619Y-78864819D01*
X102087619Y-78864819D02*
X101944762Y-78817200D01*
X101944762Y-78817200D02*
X101849524Y-78721961D01*
X101849524Y-78721961D02*
X101801905Y-78626723D01*
X101801905Y-78626723D02*
X101754286Y-78436247D01*
X101754286Y-78436247D02*
X101754286Y-78293390D01*
X101754286Y-78293390D02*
X101801905Y-78102914D01*
X101801905Y-78102914D02*
X101849524Y-78007676D01*
X101849524Y-78007676D02*
X101944762Y-77912438D01*
X101944762Y-77912438D02*
X102087619Y-77864819D01*
X102087619Y-77864819D02*
X102182857Y-77864819D01*
X102182857Y-77864819D02*
X102325714Y-77912438D01*
X102325714Y-77912438D02*
X102373333Y-77960057D01*
X103325714Y-78864819D02*
X102754286Y-78864819D01*
X103040000Y-78864819D02*
X103040000Y-77864819D01*
X103040000Y-77864819D02*
X102944762Y-78007676D01*
X102944762Y-78007676D02*
X102849524Y-78102914D01*
X102849524Y-78102914D02*
X102754286Y-78150533D01*
D12*
X125360000Y-90205000D02*
X125360000Y-88205000D01*
X124980000Y-92525000D02*
X102940000Y-92525000D01*
X124980000Y-83085000D02*
X124980000Y-92525000D01*
X102940000Y-92525000D02*
X102940000Y-83085000D01*
X102940000Y-83085000D02*
X124980000Y-83085000D01*
D13*
X147790000Y-99477500D02*
X125870000Y-99477500D01*
X147790000Y-87477500D02*
X147790000Y-99477500D01*
X125870000Y-99477500D02*
X125870000Y-87477500D01*
X125870000Y-87477500D02*
X147790000Y-87477500D01*
D14*
X144550000Y-86477500D02*
G75*
G03*
X144350000Y-86477500I-100000J0D01*
G01*
X144350000Y-86477500D02*
G75*
G03*
X144550000Y-86477500I100000J0D01*
G01*
D12*
X101555000Y-72845000D02*
X101555000Y-72910000D01*
X101555000Y-72845000D02*
X104795000Y-72845000D01*
X101555000Y-75020000D02*
X101555000Y-75085000D01*
X101555000Y-75085000D02*
X104795000Y-75085000D01*
X104795000Y-72845000D02*
X104795000Y-72910000D01*
X104795000Y-75020000D02*
X104795000Y-75085000D01*
X115607677Y-74265000D02*
X116607677Y-74265000D01*
X116107677Y-73765000D02*
X116107677Y-74765000D01*
X121087323Y-72060000D02*
X121087323Y-82220000D01*
X121127323Y-72060000D02*
X121127323Y-82220000D01*
X121167323Y-72060000D02*
X121167323Y-82220000D01*
X121207323Y-72061000D02*
X121207323Y-82219000D01*
X121247323Y-72062000D02*
X121247323Y-82218000D01*
X121287323Y-72063000D02*
X121287323Y-82217000D01*
X121327323Y-72065000D02*
X121327323Y-82215000D01*
X121367323Y-72067000D02*
X121367323Y-82213000D01*
X121407323Y-72070000D02*
X121407323Y-82210000D01*
X121447323Y-72072000D02*
X121447323Y-82208000D01*
X121487323Y-72075000D02*
X121487323Y-82205000D01*
X121527323Y-72078000D02*
X121527323Y-82202000D01*
X121567323Y-72082000D02*
X121567323Y-82198000D01*
X121607323Y-72086000D02*
X121607323Y-82194000D01*
X121647323Y-72090000D02*
X121647323Y-82190000D01*
X121687323Y-72095000D02*
X121687323Y-82185000D01*
X121727323Y-72100000D02*
X121727323Y-82180000D01*
X121767323Y-72105000D02*
X121767323Y-82175000D01*
X121808323Y-72110000D02*
X121808323Y-82170000D01*
X121848323Y-72116000D02*
X121848323Y-82164000D01*
X121888323Y-72122000D02*
X121888323Y-82158000D01*
X121928323Y-72129000D02*
X121928323Y-82151000D01*
X121968323Y-72136000D02*
X121968323Y-82144000D01*
X122008323Y-72143000D02*
X122008323Y-82137000D01*
X122048323Y-72150000D02*
X122048323Y-82130000D01*
X122088323Y-72158000D02*
X122088323Y-82122000D01*
X122128323Y-72166000D02*
X122128323Y-82114000D01*
X122168323Y-72175000D02*
X122168323Y-82105000D01*
X122208323Y-72184000D02*
X122208323Y-82096000D01*
X122248323Y-72193000D02*
X122248323Y-82087000D01*
X122288323Y-72202000D02*
X122288323Y-82078000D01*
X122328323Y-72212000D02*
X122328323Y-82068000D01*
X122368323Y-72222000D02*
X122368323Y-75899000D01*
X122368323Y-78381000D02*
X122368323Y-82058000D01*
X122408323Y-72233000D02*
X122408323Y-75899000D01*
X122408323Y-78381000D02*
X122408323Y-82047000D01*
X122448323Y-72243000D02*
X122448323Y-75899000D01*
X122448323Y-78381000D02*
X122448323Y-82037000D01*
X122488323Y-72255000D02*
X122488323Y-75899000D01*
X122488323Y-78381000D02*
X122488323Y-82025000D01*
X122528323Y-72266000D02*
X122528323Y-75899000D01*
X122528323Y-78381000D02*
X122528323Y-82014000D01*
X122568323Y-72278000D02*
X122568323Y-75899000D01*
X122568323Y-78381000D02*
X122568323Y-82002000D01*
X122608323Y-72290000D02*
X122608323Y-75899000D01*
X122608323Y-78381000D02*
X122608323Y-81990000D01*
X122648323Y-72303000D02*
X122648323Y-75899000D01*
X122648323Y-78381000D02*
X122648323Y-81977000D01*
X122688323Y-72316000D02*
X122688323Y-75899000D01*
X122688323Y-78381000D02*
X122688323Y-81964000D01*
X122728323Y-72329000D02*
X122728323Y-75899000D01*
X122728323Y-78381000D02*
X122728323Y-81951000D01*
X122768323Y-72343000D02*
X122768323Y-75899000D01*
X122768323Y-78381000D02*
X122768323Y-81937000D01*
X122808323Y-72357000D02*
X122808323Y-75899000D01*
X122808323Y-78381000D02*
X122808323Y-81923000D01*
X122848323Y-72372000D02*
X122848323Y-75899000D01*
X122848323Y-78381000D02*
X122848323Y-81908000D01*
X122888323Y-72386000D02*
X122888323Y-75899000D01*
X122888323Y-78381000D02*
X122888323Y-81894000D01*
X122928323Y-72402000D02*
X122928323Y-75899000D01*
X122928323Y-78381000D02*
X122928323Y-81878000D01*
X122968323Y-72417000D02*
X122968323Y-75899000D01*
X122968323Y-78381000D02*
X122968323Y-81863000D01*
X123008323Y-72433000D02*
X123008323Y-75899000D01*
X123008323Y-78381000D02*
X123008323Y-81847000D01*
X123048323Y-72450000D02*
X123048323Y-75899000D01*
X123048323Y-78381000D02*
X123048323Y-81830000D01*
X123088323Y-72466000D02*
X123088323Y-75899000D01*
X123088323Y-78381000D02*
X123088323Y-81814000D01*
X123128323Y-72483000D02*
X123128323Y-75899000D01*
X123128323Y-78381000D02*
X123128323Y-81797000D01*
X123168323Y-72501000D02*
X123168323Y-75899000D01*
X123168323Y-78381000D02*
X123168323Y-81779000D01*
X123208323Y-72519000D02*
X123208323Y-75899000D01*
X123208323Y-78381000D02*
X123208323Y-81761000D01*
X123248323Y-72537000D02*
X123248323Y-75899000D01*
X123248323Y-78381000D02*
X123248323Y-81743000D01*
X123288323Y-72556000D02*
X123288323Y-75899000D01*
X123288323Y-78381000D02*
X123288323Y-81724000D01*
X123328323Y-72576000D02*
X123328323Y-75899000D01*
X123328323Y-78381000D02*
X123328323Y-81704000D01*
X123368323Y-72595000D02*
X123368323Y-75899000D01*
X123368323Y-78381000D02*
X123368323Y-81685000D01*
X123408323Y-72615000D02*
X123408323Y-75899000D01*
X123408323Y-78381000D02*
X123408323Y-81665000D01*
X123448323Y-72636000D02*
X123448323Y-75899000D01*
X123448323Y-78381000D02*
X123448323Y-81644000D01*
X123488323Y-72657000D02*
X123488323Y-75899000D01*
X123488323Y-78381000D02*
X123488323Y-81623000D01*
X123528323Y-72678000D02*
X123528323Y-75899000D01*
X123528323Y-78381000D02*
X123528323Y-81602000D01*
X123568323Y-72700000D02*
X123568323Y-75899000D01*
X123568323Y-78381000D02*
X123568323Y-81580000D01*
X123608323Y-72723000D02*
X123608323Y-75899000D01*
X123608323Y-78381000D02*
X123608323Y-81557000D01*
X123648323Y-72745000D02*
X123648323Y-75899000D01*
X123648323Y-78381000D02*
X123648323Y-81535000D01*
X123688323Y-72769000D02*
X123688323Y-75899000D01*
X123688323Y-78381000D02*
X123688323Y-81511000D01*
X123728323Y-72793000D02*
X123728323Y-75899000D01*
X123728323Y-78381000D02*
X123728323Y-81487000D01*
X123768323Y-72817000D02*
X123768323Y-75899000D01*
X123768323Y-78381000D02*
X123768323Y-81463000D01*
X123808323Y-72842000D02*
X123808323Y-75899000D01*
X123808323Y-78381000D02*
X123808323Y-81438000D01*
X123848323Y-72867000D02*
X123848323Y-75899000D01*
X123848323Y-78381000D02*
X123848323Y-81413000D01*
X123888323Y-72893000D02*
X123888323Y-75899000D01*
X123888323Y-78381000D02*
X123888323Y-81387000D01*
X123928323Y-72919000D02*
X123928323Y-75899000D01*
X123928323Y-78381000D02*
X123928323Y-81361000D01*
X123968323Y-72946000D02*
X123968323Y-75899000D01*
X123968323Y-78381000D02*
X123968323Y-81334000D01*
X124008323Y-72974000D02*
X124008323Y-75899000D01*
X124008323Y-78381000D02*
X124008323Y-81306000D01*
X124048323Y-73002000D02*
X124048323Y-75899000D01*
X124048323Y-78381000D02*
X124048323Y-81278000D01*
X124088323Y-73030000D02*
X124088323Y-75899000D01*
X124088323Y-78381000D02*
X124088323Y-81250000D01*
X124128323Y-73060000D02*
X124128323Y-75899000D01*
X124128323Y-78381000D02*
X124128323Y-81220000D01*
X124168323Y-73090000D02*
X124168323Y-75899000D01*
X124168323Y-78381000D02*
X124168323Y-81190000D01*
X124208323Y-73120000D02*
X124208323Y-75899000D01*
X124208323Y-78381000D02*
X124208323Y-81160000D01*
X124248323Y-73151000D02*
X124248323Y-75899000D01*
X124248323Y-78381000D02*
X124248323Y-81129000D01*
X124288323Y-73183000D02*
X124288323Y-75899000D01*
X124288323Y-78381000D02*
X124288323Y-81097000D01*
X124328323Y-73215000D02*
X124328323Y-75899000D01*
X124328323Y-78381000D02*
X124328323Y-81065000D01*
X124368323Y-73248000D02*
X124368323Y-75899000D01*
X124368323Y-78381000D02*
X124368323Y-81032000D01*
X124408323Y-73282000D02*
X124408323Y-75899000D01*
X124408323Y-78381000D02*
X124408323Y-80998000D01*
X124448323Y-73316000D02*
X124448323Y-75899000D01*
X124448323Y-78381000D02*
X124448323Y-80964000D01*
X124488323Y-73351000D02*
X124488323Y-75899000D01*
X124488323Y-78381000D02*
X124488323Y-80929000D01*
X124528323Y-73387000D02*
X124528323Y-75899000D01*
X124528323Y-78381000D02*
X124528323Y-80893000D01*
X124568323Y-73424000D02*
X124568323Y-75899000D01*
X124568323Y-78381000D02*
X124568323Y-80856000D01*
X124608323Y-73461000D02*
X124608323Y-75899000D01*
X124608323Y-78381000D02*
X124608323Y-80819000D01*
X124648323Y-73500000D02*
X124648323Y-75899000D01*
X124648323Y-78381000D02*
X124648323Y-80780000D01*
X124688323Y-73539000D02*
X124688323Y-75899000D01*
X124688323Y-78381000D02*
X124688323Y-80741000D01*
X124728323Y-73579000D02*
X124728323Y-75899000D01*
X124728323Y-78381000D02*
X124728323Y-80701000D01*
X124768323Y-73620000D02*
X124768323Y-75899000D01*
X124768323Y-78381000D02*
X124768323Y-80660000D01*
X124808323Y-73662000D02*
X124808323Y-75899000D01*
X124808323Y-78381000D02*
X124808323Y-80618000D01*
X124848323Y-73704000D02*
X124848323Y-80576000D01*
X124888323Y-73748000D02*
X124888323Y-80532000D01*
X124928323Y-73793000D02*
X124928323Y-80487000D01*
X124968323Y-73839000D02*
X124968323Y-80441000D01*
X125008323Y-73886000D02*
X125008323Y-80394000D01*
X125048323Y-73934000D02*
X125048323Y-80346000D01*
X125088323Y-73984000D02*
X125088323Y-80296000D01*
X125128323Y-74034000D02*
X125128323Y-80246000D01*
X125168323Y-74086000D02*
X125168323Y-80194000D01*
X125208323Y-74140000D02*
X125208323Y-80140000D01*
X125248323Y-74195000D02*
X125248323Y-80085000D01*
X125288323Y-74251000D02*
X125288323Y-80029000D01*
X125328323Y-74310000D02*
X125328323Y-79970000D01*
X125368323Y-74370000D02*
X125368323Y-79910000D01*
X125408323Y-74431000D02*
X125408323Y-79849000D01*
X125448323Y-74495000D02*
X125448323Y-79785000D01*
X125488323Y-74561000D02*
X125488323Y-79719000D01*
X125528323Y-74630000D02*
X125528323Y-79650000D01*
X125568323Y-74701000D02*
X125568323Y-79579000D01*
X125608323Y-74775000D02*
X125608323Y-79505000D01*
X125648323Y-74851000D02*
X125648323Y-79429000D01*
X125688323Y-74931000D02*
X125688323Y-79349000D01*
X125728323Y-75015000D02*
X125728323Y-79265000D01*
X125768323Y-75103000D02*
X125768323Y-79177000D01*
X125808323Y-75196000D02*
X125808323Y-79084000D01*
X125848323Y-75294000D02*
X125848323Y-78986000D01*
X125888323Y-75398000D02*
X125888323Y-78882000D01*
X125928323Y-75510000D02*
X125928323Y-78770000D01*
X125968323Y-75630000D02*
X125968323Y-78650000D01*
X126008323Y-75762000D02*
X126008323Y-78518000D01*
X126048323Y-75910000D02*
X126048323Y-78370000D01*
X126088323Y-76078000D02*
X126088323Y-78202000D01*
X126128323Y-76278000D02*
X126128323Y-78002000D01*
X126168323Y-76541000D02*
X126168323Y-77739000D01*
X126207323Y-77140000D02*
G75*
G03*
X115967323Y-77140000I-5120000J0D01*
G01*
X115967323Y-77140000D02*
G75*
G03*
X126207323Y-77140000I5120000J0D01*
G01*
X108105000Y-55815000D02*
X108040000Y-55815000D01*
X108105000Y-55815000D02*
X108105000Y-59055000D01*
X105930000Y-55815000D02*
X105865000Y-55815000D01*
X105865000Y-55815000D02*
X105865000Y-59055000D01*
X108105000Y-59055000D02*
X108040000Y-59055000D01*
X105930000Y-59055000D02*
X105865000Y-59055000D01*
X116630000Y-63110000D02*
X106230000Y-63110000D01*
X106230000Y-63110000D02*
X106230000Y-73390000D01*
X116570000Y-65600000D02*
X106290000Y-65600000D01*
X106290000Y-65600000D02*
X106290000Y-70900000D01*
X116570000Y-67250000D02*
X116570000Y-65600000D01*
X116570000Y-70900000D02*
X116570000Y-69250000D01*
X106290000Y-70900000D02*
X116570000Y-70900000D01*
X116630000Y-73390000D02*
X116630000Y-63110000D01*
X106230000Y-73390000D02*
X116630000Y-73390000D01*
X116570000Y-67250000D02*
G75*
G03*
X116570000Y-69250000I0J-1000000D01*
G01*
X132790000Y-79045000D02*
X133480000Y-79045000D01*
X133480000Y-77325000D02*
X133480000Y-80765000D01*
X133480000Y-80765000D02*
X142720000Y-80765000D01*
X142720000Y-77325000D02*
X133480000Y-77325000D01*
X142720000Y-80765000D02*
X142720000Y-77325000D01*
X143410000Y-79045000D02*
X142720000Y-79045000D01*
X101845000Y-54855000D02*
X103175000Y-54855000D01*
X101845000Y-56185000D02*
X101845000Y-54855000D01*
X101845000Y-57455000D02*
X101845000Y-60055000D01*
X101845000Y-57455000D02*
X104505000Y-57455000D01*
X101845000Y-60055000D02*
X104505000Y-60055000D01*
X104505000Y-57455000D02*
X104505000Y-60055000D01*
X155145000Y-60090000D02*
X155145000Y-53550000D01*
X155475000Y-60090000D02*
X155145000Y-60090000D01*
X157555000Y-60090000D02*
X157885000Y-60090000D01*
X157885000Y-60090000D02*
X157885000Y-53550000D01*
X155145000Y-53550000D02*
X155475000Y-53550000D01*
X157885000Y-53550000D02*
X157555000Y-53550000D01*
X156355000Y-77070000D02*
X156355000Y-80270000D01*
X162487157Y-74763521D02*
G75*
G03*
X157355000Y-74727000I-2592157J-3646479D01*
G01*
X157302843Y-82056479D02*
G75*
G03*
X162435000Y-82093000I2592157J3646479D01*
G01*
X163702105Y-80700818D02*
G75*
G03*
X163705000Y-76124000I-3807105J2290818D01*
G01*
X113870000Y-60090000D02*
X113870000Y-53550000D01*
X114200000Y-60090000D02*
X113870000Y-60090000D01*
X116280000Y-60090000D02*
X116610000Y-60090000D01*
X116610000Y-60090000D02*
X116610000Y-53550000D01*
X113870000Y-53550000D02*
X114200000Y-53550000D01*
X116610000Y-53550000D02*
X116280000Y-53550000D01*
X162600000Y-61750000D02*
X162600000Y-61685000D01*
X162600000Y-61750000D02*
X159360000Y-61750000D01*
X162600000Y-59575000D02*
X162600000Y-59510000D01*
X162600000Y-59510000D02*
X159360000Y-59510000D01*
X159360000Y-61750000D02*
X159360000Y-61685000D01*
X159360000Y-59575000D02*
X159360000Y-59510000D01*
X162340000Y-63110000D02*
X151940000Y-63110000D01*
X151940000Y-63110000D02*
X151940000Y-73390000D01*
X162280000Y-65600000D02*
X152000000Y-65600000D01*
X152000000Y-65600000D02*
X152000000Y-70900000D01*
X162280000Y-67250000D02*
X162280000Y-65600000D01*
X162280000Y-70900000D02*
X162280000Y-69250000D01*
X152000000Y-70900000D02*
X162280000Y-70900000D01*
X162340000Y-73390000D02*
X162340000Y-63110000D01*
X151940000Y-73390000D02*
X162340000Y-73390000D01*
X162280000Y-67250000D02*
G75*
G03*
X162280000Y-69250000I0J-1000000D01*
G01*
X151335000Y-60090000D02*
X151335000Y-53550000D01*
X151665000Y-60090000D02*
X151335000Y-60090000D01*
X153745000Y-60090000D02*
X154075000Y-60090000D01*
X154075000Y-60090000D02*
X154075000Y-53550000D01*
X151335000Y-53550000D02*
X151665000Y-53550000D01*
X154075000Y-53550000D02*
X153745000Y-53550000D01*
X108790000Y-60090000D02*
X108790000Y-53550000D01*
X109120000Y-60090000D02*
X108790000Y-60090000D01*
X111200000Y-60090000D02*
X111530000Y-60090000D01*
X111530000Y-60090000D02*
X111530000Y-53550000D01*
X108790000Y-53550000D02*
X109120000Y-53550000D01*
X111530000Y-53550000D02*
X111200000Y-53550000D01*
X148740000Y-99545000D02*
X148740000Y-84845000D01*
X157940000Y-99545000D02*
X148740000Y-99545000D01*
X157940000Y-90745000D02*
X157940000Y-99545000D01*
X148540000Y-85695000D02*
X148540000Y-84645000D01*
X148740000Y-84845000D02*
X151340000Y-84845000D01*
X155240000Y-84845000D02*
X157940000Y-84845000D01*
X157940000Y-84845000D02*
X157940000Y-86745000D01*
X149590000Y-84645000D02*
X148540000Y-84645000D01*
X104139759Y-76571000D02*
X104769759Y-76571000D01*
X104454759Y-76256000D02*
X104454759Y-76886000D01*
X107640000Y-75180000D02*
X107640000Y-81640000D01*
X107680000Y-75180000D02*
X107680000Y-81640000D01*
X107720000Y-75180000D02*
X107720000Y-81640000D01*
X107760000Y-75182000D02*
X107760000Y-81638000D01*
X107800000Y-75183000D02*
X107800000Y-81637000D01*
X107840000Y-75186000D02*
X107840000Y-81634000D01*
X107880000Y-75188000D02*
X107880000Y-77370000D01*
X107880000Y-79450000D02*
X107880000Y-81632000D01*
X107920000Y-75192000D02*
X107920000Y-77370000D01*
X107920000Y-79450000D02*
X107920000Y-81628000D01*
X107960000Y-75195000D02*
X107960000Y-77370000D01*
X107960000Y-79450000D02*
X107960000Y-81625000D01*
X108000000Y-75199000D02*
X108000000Y-77370000D01*
X108000000Y-79450000D02*
X108000000Y-81621000D01*
X108040000Y-75204000D02*
X108040000Y-77370000D01*
X108040000Y-79450000D02*
X108040000Y-81616000D01*
X108080000Y-75209000D02*
X108080000Y-77370000D01*
X108080000Y-79450000D02*
X108080000Y-81611000D01*
X108120000Y-75215000D02*
X108120000Y-77370000D01*
X108120000Y-79450000D02*
X108120000Y-81605000D01*
X108160000Y-75221000D02*
X108160000Y-77370000D01*
X108160000Y-79450000D02*
X108160000Y-81599000D01*
X108200000Y-75228000D02*
X108200000Y-77370000D01*
X108200000Y-79450000D02*
X108200000Y-81592000D01*
X108240000Y-75235000D02*
X108240000Y-77370000D01*
X108240000Y-79450000D02*
X108240000Y-81585000D01*
X108280000Y-75243000D02*
X108280000Y-77370000D01*
X108280000Y-79450000D02*
X108280000Y-81577000D01*
X108320000Y-75251000D02*
X108320000Y-77370000D01*
X108320000Y-79450000D02*
X108320000Y-81569000D01*
X108361000Y-75260000D02*
X108361000Y-77370000D01*
X108361000Y-79450000D02*
X108361000Y-81560000D01*
X108401000Y-75269000D02*
X108401000Y-77370000D01*
X108401000Y-79450000D02*
X108401000Y-81551000D01*
X108441000Y-75279000D02*
X108441000Y-77370000D01*
X108441000Y-79450000D02*
X108441000Y-81541000D01*
X108481000Y-75289000D02*
X108481000Y-77370000D01*
X108481000Y-79450000D02*
X108481000Y-81531000D01*
X108521000Y-75300000D02*
X108521000Y-77370000D01*
X108521000Y-79450000D02*
X108521000Y-81520000D01*
X108561000Y-75312000D02*
X108561000Y-77370000D01*
X108561000Y-79450000D02*
X108561000Y-81508000D01*
X108601000Y-75324000D02*
X108601000Y-77370000D01*
X108601000Y-79450000D02*
X108601000Y-81496000D01*
X108641000Y-75336000D02*
X108641000Y-77370000D01*
X108641000Y-79450000D02*
X108641000Y-81484000D01*
X108681000Y-75349000D02*
X108681000Y-77370000D01*
X108681000Y-79450000D02*
X108681000Y-81471000D01*
X108721000Y-75363000D02*
X108721000Y-77370000D01*
X108721000Y-79450000D02*
X108721000Y-81457000D01*
X108761000Y-75377000D02*
X108761000Y-77370000D01*
X108761000Y-79450000D02*
X108761000Y-81443000D01*
X108801000Y-75392000D02*
X108801000Y-77370000D01*
X108801000Y-79450000D02*
X108801000Y-81428000D01*
X108841000Y-75408000D02*
X108841000Y-77370000D01*
X108841000Y-79450000D02*
X108841000Y-81412000D01*
X108881000Y-75424000D02*
X108881000Y-77370000D01*
X108881000Y-79450000D02*
X108881000Y-81396000D01*
X108921000Y-75440000D02*
X108921000Y-77370000D01*
X108921000Y-79450000D02*
X108921000Y-81380000D01*
X108961000Y-75458000D02*
X108961000Y-77370000D01*
X108961000Y-79450000D02*
X108961000Y-81362000D01*
X109001000Y-75476000D02*
X109001000Y-77370000D01*
X109001000Y-79450000D02*
X109001000Y-81344000D01*
X109041000Y-75494000D02*
X109041000Y-77370000D01*
X109041000Y-79450000D02*
X109041000Y-81326000D01*
X109081000Y-75514000D02*
X109081000Y-77370000D01*
X109081000Y-79450000D02*
X109081000Y-81306000D01*
X109121000Y-75534000D02*
X109121000Y-77370000D01*
X109121000Y-79450000D02*
X109121000Y-81286000D01*
X109161000Y-75554000D02*
X109161000Y-77370000D01*
X109161000Y-79450000D02*
X109161000Y-81266000D01*
X109201000Y-75576000D02*
X109201000Y-77370000D01*
X109201000Y-79450000D02*
X109201000Y-81244000D01*
X109241000Y-75598000D02*
X109241000Y-77370000D01*
X109241000Y-79450000D02*
X109241000Y-81222000D01*
X109281000Y-75620000D02*
X109281000Y-77370000D01*
X109281000Y-79450000D02*
X109281000Y-81200000D01*
X109321000Y-75644000D02*
X109321000Y-77370000D01*
X109321000Y-79450000D02*
X109321000Y-81176000D01*
X109361000Y-75668000D02*
X109361000Y-77370000D01*
X109361000Y-79450000D02*
X109361000Y-81152000D01*
X109401000Y-75694000D02*
X109401000Y-77370000D01*
X109401000Y-79450000D02*
X109401000Y-81126000D01*
X109441000Y-75720000D02*
X109441000Y-77370000D01*
X109441000Y-79450000D02*
X109441000Y-81100000D01*
X109481000Y-75746000D02*
X109481000Y-77370000D01*
X109481000Y-79450000D02*
X109481000Y-81074000D01*
X109521000Y-75774000D02*
X109521000Y-77370000D01*
X109521000Y-79450000D02*
X109521000Y-81046000D01*
X109561000Y-75803000D02*
X109561000Y-77370000D01*
X109561000Y-79450000D02*
X109561000Y-81017000D01*
X109601000Y-75832000D02*
X109601000Y-77370000D01*
X109601000Y-79450000D02*
X109601000Y-80988000D01*
X109641000Y-75862000D02*
X109641000Y-77370000D01*
X109641000Y-79450000D02*
X109641000Y-80958000D01*
X109681000Y-75894000D02*
X109681000Y-77370000D01*
X109681000Y-79450000D02*
X109681000Y-80926000D01*
X109721000Y-75926000D02*
X109721000Y-77370000D01*
X109721000Y-79450000D02*
X109721000Y-80894000D01*
X109761000Y-75960000D02*
X109761000Y-77370000D01*
X109761000Y-79450000D02*
X109761000Y-80860000D01*
X109801000Y-75994000D02*
X109801000Y-77370000D01*
X109801000Y-79450000D02*
X109801000Y-80826000D01*
X109841000Y-76030000D02*
X109841000Y-77370000D01*
X109841000Y-79450000D02*
X109841000Y-80790000D01*
X109881000Y-76067000D02*
X109881000Y-77370000D01*
X109881000Y-79450000D02*
X109881000Y-80753000D01*
X109921000Y-76105000D02*
X109921000Y-77370000D01*
X109921000Y-79450000D02*
X109921000Y-80715000D01*
X109961000Y-76145000D02*
X109961000Y-80675000D01*
X110001000Y-76186000D02*
X110001000Y-80634000D01*
X110041000Y-76228000D02*
X110041000Y-80592000D01*
X110081000Y-76273000D02*
X110081000Y-80547000D01*
X110121000Y-76318000D02*
X110121000Y-80502000D01*
X110161000Y-76366000D02*
X110161000Y-80454000D01*
X110201000Y-76415000D02*
X110201000Y-80405000D01*
X110241000Y-76466000D02*
X110241000Y-80354000D01*
X110281000Y-76520000D02*
X110281000Y-80300000D01*
X110321000Y-76576000D02*
X110321000Y-80244000D01*
X110361000Y-76634000D02*
X110361000Y-80186000D01*
X110401000Y-76696000D02*
X110401000Y-80124000D01*
X110441000Y-76760000D02*
X110441000Y-80060000D01*
X110481000Y-76829000D02*
X110481000Y-79991000D01*
X110521000Y-76901000D02*
X110521000Y-79919000D01*
X110561000Y-76978000D02*
X110561000Y-79842000D01*
X110601000Y-77060000D02*
X110601000Y-79760000D01*
X110641000Y-77148000D02*
X110641000Y-79672000D01*
X110681000Y-77245000D02*
X110681000Y-79575000D01*
X110721000Y-77351000D02*
X110721000Y-79469000D01*
X110761000Y-77470000D02*
X110761000Y-79350000D01*
X110801000Y-77608000D02*
X110801000Y-79212000D01*
X110841000Y-77777000D02*
X110841000Y-79043000D01*
X110881000Y-78008000D02*
X110881000Y-78812000D01*
X110910000Y-78410000D02*
G75*
G03*
X104370000Y-78410000I-3270000J0D01*
G01*
X104370000Y-78410000D02*
G75*
G03*
X110910000Y-78410000I3270000J0D01*
G01*
M02*
