G04 #@! TF.GenerationSoftware,KiCad,Pcbnew,7.0.10*
G04 #@! TF.CreationDate,2024-02-03T15:41:00-08:00*
G04 #@! TF.ProjectId,rpi-simplex-clock-hat,7270692d-7369-46d7-906c-65782d636c6f,0*
G04 #@! TF.SameCoordinates,Original*
G04 #@! TF.FileFunction,Soldermask,Top*
G04 #@! TF.FilePolarity,Negative*
%FSLAX46Y46*%
G04 Gerber Fmt 4.6, Leading zero omitted, Abs format (unit mm)*
G04 Created by KiCad (PCBNEW 7.0.10) date 2024-02-03 15:41:00*
%MOMM*%
%LPD*%
G01*
G04 APERTURE LIST*
G04 Aperture macros list*
%AMRoundRect*
0 Rectangle with rounded corners*
0 $1 Rounding radius*
0 $2 $3 $4 $5 $6 $7 $8 $9 X,Y pos of 4 corners*
0 Add a 4 corners polygon primitive as box body*
4,1,4,$2,$3,$4,$5,$6,$7,$8,$9,$2,$3,0*
0 Add four circle primitives for the rounded corners*
1,1,$1+$1,$2,$3*
1,1,$1+$1,$4,$5*
1,1,$1+$1,$6,$7*
1,1,$1+$1,$8,$9*
0 Add four rect primitives between the rounded corners*
20,1,$1+$1,$2,$3,$4,$5,0*
20,1,$1+$1,$4,$5,$6,$7,0*
20,1,$1+$1,$6,$7,$8,$9,0*
20,1,$1+$1,$8,$9,$2,$3,0*%
G04 Aperture macros list end*
%ADD10R,1.500000X3.000000*%
%ADD11O,1.500000X3.000000*%
%ADD12RoundRect,0.102000X1.275000X1.275000X-1.275000X1.275000X-1.275000X-1.275000X1.275000X-1.275000X0*%
%ADD13C,2.754000*%
%ADD14C,1.600000*%
%ADD15R,2.000000X2.000000*%
%ADD16C,2.000000*%
%ADD17R,1.600000X1.600000*%
%ADD18O,1.600000X1.600000*%
%ADD19R,1.700000X1.700000*%
%ADD20O,1.700000X1.700000*%
%ADD21C,2.700000*%
%ADD22O,2.000000X2.000000*%
%ADD23R,3.500000X3.500000*%
%ADD24RoundRect,0.750000X1.000000X-0.750000X1.000000X0.750000X-1.000000X0.750000X-1.000000X-0.750000X0*%
%ADD25RoundRect,0.875000X0.875000X-0.875000X0.875000X0.875000X-0.875000X0.875000X-0.875000X-0.875000X0*%
G04 APERTURE END LIST*
D10*
X122860000Y-89205000D03*
D11*
X120320000Y-89205000D03*
X117780000Y-89205000D03*
X112700000Y-89205000D03*
X110160000Y-89205000D03*
X107620000Y-89205000D03*
X105080000Y-89205000D03*
D12*
X144450000Y-89477500D03*
D13*
X139370000Y-89477500D03*
X134290000Y-89477500D03*
X129210000Y-89477500D03*
D14*
X101925000Y-73965000D03*
X104425000Y-73965000D03*
D15*
X118587323Y-77140000D03*
D16*
X123587323Y-77140000D03*
D14*
X106985000Y-56185000D03*
X106985000Y-58685000D03*
D17*
X115240000Y-64440000D03*
D18*
X112700000Y-64440000D03*
X110160000Y-64440000D03*
X107620000Y-64440000D03*
X107620000Y-72060000D03*
X110160000Y-72060000D03*
X112700000Y-72060000D03*
X115240000Y-72060000D03*
D14*
X131750000Y-79045000D03*
D18*
X144450000Y-79045000D03*
D19*
X103175000Y-56185000D03*
D20*
X103175000Y-58725000D03*
D21*
X103500000Y-96450000D03*
X103500000Y-47450000D03*
X161500000Y-96450000D03*
D14*
X156515000Y-60630000D03*
D18*
X156515000Y-53010000D03*
D15*
X157355000Y-75870000D03*
D22*
X157355000Y-80950000D03*
X162435000Y-80950000D03*
X162435000Y-75870000D03*
D14*
X115240000Y-60630000D03*
D18*
X115240000Y-53010000D03*
D21*
X161500000Y-47450000D03*
D14*
X162230000Y-60630000D03*
X159730000Y-60630000D03*
D17*
X160950000Y-64440000D03*
D18*
X158410000Y-64440000D03*
X155870000Y-64440000D03*
X153330000Y-64440000D03*
X153330000Y-72060000D03*
X155870000Y-72060000D03*
X158410000Y-72060000D03*
X160950000Y-72060000D03*
D14*
X152705000Y-60630000D03*
D18*
X152705000Y-53010000D03*
D14*
X110160000Y-60630000D03*
D18*
X110160000Y-53010000D03*
D23*
X153340000Y-85745000D03*
D24*
X153340000Y-91745000D03*
D25*
X158040000Y-88745000D03*
D17*
X106390000Y-78410000D03*
D14*
X108890000Y-78410000D03*
D19*
X108370000Y-48720000D03*
D20*
X108370000Y-46180000D03*
X110910000Y-48720000D03*
X110910000Y-46180000D03*
X113450000Y-48720000D03*
X113450000Y-46180000D03*
X115990000Y-48720000D03*
X115990000Y-46180000D03*
X118530000Y-48720000D03*
X118530000Y-46180000D03*
X121070000Y-48720000D03*
X121070000Y-46180000D03*
X123610000Y-48720000D03*
X123610000Y-46180000D03*
X126150000Y-48720000D03*
X126150000Y-46180000D03*
X128690000Y-48720000D03*
X128690000Y-46180000D03*
X131230000Y-48720000D03*
X131230000Y-46180000D03*
X133770000Y-48720000D03*
X133770000Y-46180000D03*
X136310000Y-48720000D03*
X136310000Y-46180000D03*
X138850000Y-48720000D03*
X138850000Y-46180000D03*
X141390000Y-48720000D03*
X141390000Y-46180000D03*
X143930000Y-48720000D03*
X143930000Y-46180000D03*
X146470000Y-48720000D03*
X146470000Y-46180000D03*
X149010000Y-48720000D03*
X149010000Y-46180000D03*
X151550000Y-48720000D03*
X151550000Y-46180000D03*
X154090000Y-48720000D03*
X154090000Y-46180000D03*
X156630000Y-48720000D03*
X156630000Y-46180000D03*
M02*
